<?xml version="1.0" standalone="no"?>
<!DOCTYPE svg PUBLIC "-//W3C//DTD SVG 1.1//EN" "http://www.w3.org/Graphics/SVG/1.1/DTD/svg11.dtd" >
<!--
2013-9-30: Created.
-->
<svg>
<metadata>
Created by iconfont
</metadata>
<defs>

<font id="iconfont" horiz-adv-x="1024" >
  <font-face
    font-family="iconfont"
    font-weight="500"
    font-stretch="normal"
    units-per-em="1024"
    ascent="896"
    descent="-128"
  />
    <missing-glyph />
    
    <glyph glyph-name="x" unicode="x" horiz-adv-x="1001"
d="M281 543q-27 -1 -53 -1h-83q-18 0 -36.5 -6t-32.5 -18.5t-23 -32t-9 -45.5v-76h912v41q0 16 -0.5 30t-0.5 18q0 13 -5 29t-17 29.5t-31.5 22.5t-49.5 9h-133v-97h-438v97zM955 310v-52q0 -23 0.5 -52t0.5 -58t-10.5 -47.5t-26 -30t-33 -16t-31.5 -4.5q-14 -1 -29.5 -0.5
t-29.5 0.5h-32l-45 128h-439l-44 -128h-29h-34q-20 0 -45 1q-25 0 -41 9.5t-25.5 23t-13.5 29.5t-4 30v167h911zM163 247q-12 0 -21 -8.5t-9 -21.5t9 -21.5t21 -8.5q13 0 22 8.5t9 21.5t-9 21.5t-22 8.5zM316 123q-8 -26 -14 -48q-5 -19 -10.5 -37t-7.5 -25t-3 -15t1 -14.5
t9.5 -10.5t21.5 -4h37h67h81h80h64h36q23 0 34 12t2 38q-5 13 -9.5 30.5t-9.5 34.5q-5 19 -11 39h-368zM336 498v228q0 11 2.5 23t10 21.5t20.5 15.5t34 6h188q31 0 51.5 -14.5t20.5 -52.5v-227h-327z" />
    

    
    <glyph glyph-name="home" unicode="&#58880;" d="M931.008 293.344 545.984 678.496c-21.056 20.992-55.104 20.992-76.096 0L84.8 293.344C70.784 279.392 75.456 268 95.296 268h107.648v-286.976c0-29.76 24.128-53.888 53.824-53.888h161.408v215.296h179.456v-215.296h215.168V268h107.712C940.352 268 945.088 279.392 931.008 293.344z"  horiz-adv-x="1024" />

    
    <glyph glyph-name="38xinzeng" unicode="&#58904;" d="M1024 186.222222 625.777778 186.222222 625.777778-212 398.222222-212 398.222222 186.222222 0 186.222222 0 413.777778 398.222222 413.777778 398.222222 812 625.777778 810.179556 625.777778 413.777778 1024 413.777778Z"  horiz-adv-x="1024" />

    
    <glyph glyph-name="add" unicode="&#58901;" d="M1024 384.16 596.224 384.16 596.224 812 427.84 812 427.84 384.16 0 384.16 0 215.776 427.84 215.776 427.84-212 596.224-212 596.224 215.776 1024 215.776Z"  horiz-adv-x="1024" />

    
    <glyph glyph-name="user" unicode="&#58947;" d="M799.998602 587.998602 799.998602 427.999379c0-46.68622-9.688186-97.687137-28.999937-153.000267-19.33412-55.342955-49.00015-98.999442-89.000578-130.999286l277.999738-131.998427 16.001165-8.000583c10.667443-3.999049 21.312518-11.343479 31.999845-22.000981 10.667443-10.687327 16.001165-22.000981 16.001165-34.000612l0-95.999534c0-17.313469-6.332862-32.313008-19.001073-44.998617-12.688094-12.665725-27.687633-19.001073-44.998617-19.001073l-895.995651 0c-17.333353 0-32.332892 6.332862-44.998617 19.001073-12.688094 12.685608-19.001073 27.687633-19.001073 44.998617l0 95.999534c0 10.657502 5.999816 21.655507 17.999447 32.998985 11.999631 11.313654 21.312518 19.001073 28.000796 23.000121 6.665909 3.999049 12.665725 6.655968 17.999447 8.000583l279.998019 133.999194c-40.000427 31.999845-69.999505 75.99932-89.999718 131.998427s-29.999078 105.998398-29.999078 150.000359l0 159.999223c0 53.312363 30.312241 104.000117 90.998859 151.998641 60.666735 47.998524 125.998612 72.000272 195.998117 72.000272s135.666914-23.999262 196.999743-72.000272C769.311062 691.998718 799.998602 641.310965 799.998602 587.998602zM361.0005 693.997c-48.686987-35.998893-72.999413-71.34412-72.999413-105.998398L288.001087 427.999379c0-35.998893 8.666676-77.686924 26.000029-124.999471 17.313469-47.342372 41.312731-83.000762 72.000272-107.000024 17.313469-16.001165 24.665356-35.68573 22.000981-58.999015-2.686744-23.34311-14.686375-39.687264-35.998893-49.00015l-281.998786-133.999194c-17.333353-8.000583-26.000029-20.000214-26.000029-35.998893l0-66.000456 895.995651 0L960.000311-83.998136c0 20.000214-8.68656 32.655997-26.000029 37.99966l-2.000767 0-277.999738 131.998427c-21.332401 10.657502-33.332032 27.655322-35.998893 51.000917-2.686744 23.313285 5.311353 42.311872 23.999262 57.000733 30.667657 25.311566 54.000825 61.312945 69.999505 107.999165 16.001165 46.656395 23.999262 88.655104 23.999262 125.998612l0 159.999223c0 34.656764-23.999262 69.999505-72.000272 105.998398s-98.686278 54.000825-151.998641 54.000825C459.999942 747.997825 409.667604 729.998379 361.0005 693.997z"  horiz-adv-x="1025" />

    
    <glyph glyph-name="up" unicode="&#58894;" d="M928.462087 84.812009c-23.431665-27.608801-56.788377-41.797965-90.38045-41.797965-27.075659 0-54.329373 9.272177-76.635401 28.17162L511.98772 283.022327 262.558881 71.185664c-49.856501-42.360783-124.655068-36.288484-167.04655 13.596669C53.151547 134.668511 59.253522 209.438425 109.139699 251.799208L435.292967 528.807173c44.227294 37.592177 109.191888 37.592177 153.419182 0l326.153268-277.007965C964.750571 209.467077 970.853569 134.698187 928.462087 84.812009z"  horiz-adv-x="1024" />

    
    <glyph glyph-name="home1" unicode="&#58886;" d="M203.444-87.549c1.814-42.001 36.195-75.596 78.657-75.596h78.985c43.619 0 78.985 35.365 78.985 78.987v41.957h0.251v75.901c-0.115-1.696 0 0 0 0 0 28.192 11.225 39.862 44.39 39.862l65.293 0.096c40.367 0 47.861-9.583 47.861-43.466 0 0 0.559-8.039 0 0l0.502-117.511c0-42.117 30.208-75.825 78.657-75.825h78.987c46.117 0 78.983 35.365 78.983 78.987v41.957h0.287l-0.271 274.561c0 21.808-17.7 39.491-39.491 39.491-21.828 0-39.493-17.684-39.493-39.491l0.080-264.838c-0.848-38.531-6.365-48.713-39.607-51.353-39.535 2.91-39.147 16.178-39.147 78.021l-0.329 78.386c0 43.62-35.363 78.983-78.981 78.983h-157.972c-43.367 0-78.503-34.961-78.909-78.235l0.137-100.33c-0.348-43.655-4.165-54.377-39.010-56.923-28.212 1.967-37.236 9.102-39.877 34.671l-0.213 237.839h-0.097v41.962c0 42.010-31.193 78.985-78.985 78.985h-24.779l341.026 340.063 407.751-406.592c15.406-15.425 40.417-15.425 55.845 0 15.424 15.428 15.424 40.438 0 55.843l-435.616 434.383c-0.020 0.038-0.020 0.059-0.036 0.079-0.041 0.018-0.058 0.018-0.079 0.038l-0.578 0.578c-15.426 15.425-40.419 15.425-55.845 0-1.099-1.099-1.542-2.546-2.467-3.722l-433.182-431.967c-0.194-0.193-0.252-0.502-0.464-0.694-22.090-20.070-12.266-47.904-4.112-55.587 12.543-11.819 35.774-10.516 35.523-10.535l71.232 0.174c37.175 0 44.989-7.788 44.989-52.836l1.119-266.302zM202.328 178.751z"  horiz-adv-x="1024" />

    
    <glyph glyph-name="menu" unicode="&#59073;" d="M128 598.666667l768 0q17.664 0 30.165333-12.501333t12.501333-30.165333-12.501333-30.165333-30.165333-12.501333l-768 0q-17.664 0-30.165333 12.501333t-12.501333 30.165333 12.501333 30.165333 30.165333 12.501333zM128 86.666667l768 0q17.664 0 30.165333-12.501333t12.501333-30.165333-12.501333-30.165333-30.165333-12.501333l-768 0q-17.664 0-30.165333 12.501333t-12.501333 30.165333 12.501333 30.165333 30.165333 12.501333zM128 342.666667l768 0q17.664 0 30.165333-12.501333t12.501333-30.165333-12.501333-30.165333-30.165333-12.501333l-768 0q-17.664 0-30.165333 12.501333t-12.501333 30.165333 12.501333 30.165333 30.165333 12.501333z"  horiz-adv-x="1024" />

    
    <glyph glyph-name="new" unicode="&#58881;" d="M654.848 195.424 368.704 563.04 367.552 561.888 273.92 561.888l0-523.776 95.232 0L369.152 408.608l285.696-367.04 0-3.456 95.232 0L750.08 561.888l-95.232 0L654.848 195.424zM882.368 799.968 141.632 799.968C83.2 799.968 35.84 747.296 35.84 682.336l0-764.672c0-65.024 47.36-117.632 105.856-117.632l740.736 0c58.432 0 105.792 52.608 105.792 117.632L988.224 682.336C988.16 747.296 940.8 799.968 882.368 799.968zM892.736-16.224c0-49.6-37.44-89.984-83.776-89.984L213.504-106.208c-46.272 0-83.776 40.384-83.776 89.984L129.728 616.16c0 49.664 37.44 89.984 83.776 89.984l595.52 0c46.336 0 83.776-40.256 83.776-89.984L892.8-16.224z"  horiz-adv-x="1024" />

    
    <glyph glyph-name="square" unicode="&#58890;" d="M165.789 358.172v276.938h276.94v-276.938h-276.94zM581.271 358.172v276.938h276.938v-276.938h-276.938zM165.789-57.308v276.939h276.94v-276.938l-276.94-0.001zM581.271-57.308v276.939h276.938v-276.938l-276.938-0.001z"  horiz-adv-x="1024" />

    
    <glyph glyph-name="recent" unicode="&#58898;" d="M597.011674-124.217724c-113.866351 0-220.960461 44.329625-301.517171 124.859729-11.102872 11.07422-11.102872 29.090549 0 40.194444 11.104919 11.102872 29.092595 11.102872 40.194444 0 69.842695-69.786413 162.611541-108.204397 261.322727-108.204397s191.482079 38.417985 261.322727 108.204397c69.786413 69.786413 108.204397 162.583912 108.204397 261.322727 0 98.739838-38.417985 191.536314-108.204397 261.32375-69.840648 69.786413-162.611541 108.204397-261.322727 108.204397s-191.480033-38.417985-261.322727-108.204397c-69.784366-69.786413-108.204397-162.583912-108.204397-261.32375 0-15.711843-12.713556-28.4254-28.424376-28.4254s-28.424376 12.713556-28.424376 28.4254c0 113.923656 44.358277 221.016743 124.859729 301.518195C376.051213 684.206452 483.145323 728.536077 597.011674 728.536077s220.962507-44.329625 301.517171-124.859729c80.501452-80.501452 124.861776-187.594539 124.861776-301.518195 0-113.922632-44.360324-221.015719-124.861776-301.517171C817.974182-79.887077 710.878025-124.217724 597.011674-124.217724zM398.036947 341.966811 199.05915 142.989013 0.084423 341.966811Z"  horiz-adv-x="1024" />

    
    <glyph glyph-name="home2" unicode="&#58919;" d="M974.058667 331.445333l0.298667 0.32L601.450667 711.306667c-41.429333 42.154667-108.586667 42.154667-150.016 0L77.866667 331.082667l0.234667-0.256c-8.042667-7.850667-13.077333-18.858667-13.077333-31.082667 0-23.850667 18.986667-43.178667 42.432-43.178667 12.714667 0 24 5.802667 31.786667 14.826667l23.893333 24.32 0-298.688c0-59.626667 47.765333-107.968 106.666667-107.968l150.592 0 213.354667 0 148.032 0c58.901333 0 106.666667 48.341333 106.666667 107.968L888.448 297.077333l25.216-25.664c7.786667-9.045333 19.072-14.869333 31.786667-14.869333 23.424 0 42.432 19.328 42.432 43.178667C987.882667 312.330667 982.506667 323.552 974.058667 331.445333zM589.781333 102.389333l0-126.954667-128 0 0 126.954667L589.781333 102.389333zM760.277333-24.565333l-85.162667 0 0 169.621333c0 23.573333-19.093333 42.666667-42.666667 42.666667l-213.333333 0c-23.573333 0-42.666667-19.093333-42.666667-42.666667l0-169.621333-85.162667 0c-23.552 0-42.645333 19.328-42.645333 43.178667L248.64 382.773333 496.448 634.976c16.576 16.874667 43.434667 16.874667 60.010667 0l246.464-250.837333L802.922667 18.613333C802.901333-5.237333 783.829333-24.565333 760.277333-24.565333z"  horiz-adv-x="1024" />

    
    <glyph glyph-name="new1" unicode="&#58906;" d="M681.905156-72.411825c-9.716292 0-20.485567 2.617617-28.847002-0.74599-8.162914-3.28379-14.009062-12.542664-20.617573-19.421328-16.856923-17.548678-35.104519-33.647331-57.576323-43.195801-26.612101-11.30958-54.645574-19.001773-83.886549-15.796778-41.578977 4.555759-78.806857 19.654642-108.668978 50.180889-8.520047 8.713452-17.074887 17.403369-25.953092 25.742291-2.093684 1.966795-5.529947 3.40454-8.399297 3.497661-15.827477 0.506537-31.768541-0.539282-47.488571 0.904603-50.598398 4.64581-93.489254 24.176632-125.107369 65.732074-24.524556 32.232099-33.83255 68.917626-34.731012 108.472504-0.231267 10.149151-0.356111 20.325931 0.098237 30.462802 0.234337 5.201465-1.723248 8.574283-5.164626 12.164041-13.748119 14.346753-27.64871 28.587082-40.59558 43.639916-16.512069 19.198248-24.766057 42.265616-30.005384 66.86078-12.706393 59.642378 4.443196 110.282732 45.070498 154.107867 8.831132 9.524934 18.445094 18.319228 27.421536 27.716248 1.717108 1.796926 2.928702 4.821819 3.001357 7.320733 0.320295 10.958586-0.037862 21.934568 0.170892 32.898271 0.795109 41.834804 11.192923 80.461543 38.534642 113.258507 24.293289 29.144784 54.609759 47.857984 91.992157 56.354496 25.140587 5.715165 50.2648 5.674233 75.585489 5.54325 4.647857-0.024559 7.834432 1.417279 11.106965 4.65809 12.69002 12.56006 25.248034 25.318642 38.698371 37.035498 21.100574 18.383696 46.287209 27.906583 73.437569 34.428114 28.417213 6.827499 55.336306 2.755764 82.682118-4.257977 28.490891-7.30743 51.111075-24.003693 72.078619-43.494607 8.623401-8.013511 16.57449-16.747429 25.140587-24.825408 1.945305-1.831718 5.14723-3.151783 7.824199-3.25002 17.440208-0.630357 35.045167 0.469698 52.320623-1.458211 64.234977-7.163143 112.493074-38.59911 140.007731-97.916077 9.953699-21.454638 14.706957-44.99682 15.500019-68.922742 0.398066-11.969613 0.471744-23.982204-0.079818-35.939537-0.292666-6.296403 1.958608-10.390651 6.222725-14.746866 13.051247-13.32754 26.045189-26.76662 38.186717-40.909735 17.021675-19.821441 25.201985-43.662429 31.638581-68.804039 7.532557-29.429263 3.199878-57.368592-4.459568-85.603657-7.331989-27.033703-22.932292-48.969295-41.818431-68.899206-8.099469-8.5487-16.483416-16.838503-25.001417-24.973788-3.324722-3.177366-4.705162-6.438643-4.731768-11.113105-0.107447-17.845437 0.669242-35.849486-1.388627-53.505611-5.052063-43.299155-22.289656-80.993662-55.640228-110.222357-23.085788-20.228717-49.650817-33.465183-80.096223-38.174438-15.357779-2.376117-30.844495-3.891633-46.27186-5.792936C682.031023-73.071857 681.967578-72.743376 681.905156-72.411825zM335.710436 589.538349c-8.125051 0-16.251126-0.063445-24.376177 0.014326-14.536065 0.137123-28.751834-1.65264-42.113143-7.653307-36.647665-16.457834-59.789735-44.054355-63.970964-84.352153-2.566452-24.739451-1.272993-49.895387-1.363044-74.864058-0.021489-5.710049-1.594311-9.969049-5.709025-13.978363-14.115486-13.745049-27.928073-27.802206-41.875736-41.72224-10.143011-10.123568-18.315134-21.549805-24.337291-34.637892-16.202007-35.195593-8.911974-82.57774 17.842367-110.815875 16.057721-16.946974 32.873712-33.175587 48.940642-50.117444 2.733251-2.88163 4.714372-7.692193 4.805446-11.662621 0.470721-20.710694 0.299829-41.438785 0.205685-62.156642-0.277316-60.832484 50.128701-107.379613 106.235556-106.032942 18.069541 0.434905 36.180014-0.479931 54.229089 0.273223 10.4367 0.434905 17.865903-2.855024 25.073048-10.381441 15.576767-16.268522 30.981618-33.013905 48.443315-47.098691 43.043329-34.713616 100.859106-30.609135 140.169413 8.445346 14.123672 14.030551 28.290323 28.022217 42.167379 42.292222 4.606925 4.737908 9.616008 6.624884 16.187681 6.66377 25.969465 0.152473 52.03512-0.49528 77.877695 1.542122 22.992667 1.814322 42.188868 13.81975 58.208726 30.156834 21.63167 22.059412 30.466895 49.133024 29.997198 79.70532-0.280386 18.278295 0.143263 36.56887-0.160659 54.847166-0.104377 6.331195 1.62194 11.06501 6.30152 15.550161 13.632485 13.074783 26.650987 26.787086 40.209794 39.939641 20.36891 19.756973 32.299637 43.223431 33.518395 71.928193 1.193175 28.054963-6.600325 53.05638-25.63382 73.753771-15.797801 17.177218-32.531927 33.499975-49.080835 49.972135-3.767813 3.752464-5.340635 7.662517-5.288446 12.916171 0.199545 19.906375 0.148379 39.816844 0.063445 59.722196-0.106424 24.393573-6.246261 46.923706-21.533432 66.353221-19.857257 25.241894-45.477774 40.083927-77.988212 41.082674-22.12081 0.681522-44.276413 0.435928-66.413596 0.381693-6.226818-0.014326-11.135618 1.584078-15.659655 6.303566-13.20986 13.782911-26.91807 27.087938-40.405245 40.60479-17.206894 17.243733-37.163411 29.230742-61.747319 32.397874-30.682813 3.954055-58.8442-2.355651-82.187861-23.133883-18.025539-16.044418-34.720779-33.597189-51.777247-50.709939-3.917216-3.929496-8.16803-5.592368-13.510712-5.553483C359.276155 589.603841 347.492784 589.541419 335.710436 589.538349zM662.946362 290.247892c-1.559519-7.190773-3.097548-14.389732-4.682649-21.574365-5.652743-25.6461-11.405771-51.268664-16.895809-76.94751-0.968048-4.519943-3.323699-6.027274-7.584746-5.997598-12.187577 0.080841-24.382317 0.25071-36.561707-0.075725-5.226025-0.13917-7.207146 2.333138-8.259104 6.838755-7.728008 33.030277-15.519462 66.047252-23.311939 99.063203-5.333472 22.596647-10.718109 45.182039-16.045441 67.781756-1.684362 7.135514-0.321318 8.922207 6.830569 8.950859 11.374048 0.044002 22.751167-0.068562 34.126238 0.049119 4.752234 0.050142 7.329942-1.456165 8.239662-6.664793 5.41943-31.074739 11.151991-62.096267 16.799618-93.128027 0.740874-4.071735 1.597381-8.121981 3.15076-11.979846 7.142677 35.011398 14.314007 70.018703 21.393239 105.042381 0.956791 4.717442 3.270487 6.880711 8.316409 6.771217 11.573593-0.25071 23.157419-0.167822 34.734082-0.035816 4.582365 0.051165 7.143701-1.703805 8.004301-6.356778 6.255471-33.783431 12.610202-67.548442 19.699668-101.545744 1.566682 8.385994 3.091408 16.780175 4.708232 25.157983 4.937452 25.595958 9.904581 51.186799 14.883989 76.775594 0.818645 4.192485 3.27151 6.068206 7.715729 5.987365 10.558473-0.193405 21.126156-0.038886 31.688723-0.067538 8.393157-0.022513 9.816576-1.732457 7.746428-9.741875-12.778024-49.440016-25.601074-98.867752-38.412868-148.300604-1.669012-6.441713-2.981914-13.014408-5.245468-19.23918-0.797156-2.188852-3.89061-4.937452-6.025227-5.013177-12.782118-0.470721-25.588795-0.195451-38.385239-0.254803-4.679579-0.020466-6.121418 2.749624-6.901177 6.816243-6.232958 32.502251-12.590759 64.98199-18.908652 97.468892C663.493831 290.100536 663.218562 290.175237 662.946362 290.247892zM286.619368 297.363963c0-33.890878 0.002047-67.779709-0.001023-101.667517 0-9.917884-0.00614-9.921977-9.764388-9.924024-8.731872-0.004093-17.464767 0.12382-26.193569-0.047072-5.284353-0.104377-7.881504 1.879813-7.873318 7.449669 0.069585 55.840796 0.068562 111.682615 0.001023 167.524434-0.00614 5.481851 2.493797 7.65126 7.783267 7.609305 12.994965-0.100284 26.003234 0.249687 38.97978-0.255827 2.808976-0.109494 6.571672-2.38021 8.079002-4.790096 7.587815-12.141528 14.808264-24.530696 21.715581-37.075407 9.655917-17.532305 18.943444-35.268248 28.329209-52.948933 1.394766-2.622734 2.478448-5.41329 4.63967-8.082072 0 2.865257 0.027629 5.730515-0.004093 8.591679-0.335644 28.622898-0.708128 57.246819-1.001817 85.869716-0.075725 7.41897 1.13894 8.613168 8.317433 8.647961 9.544377 0.045025 19.088754-0.041956 28.632107 0.028653 4.716418 0.033769 6.924713-1.74269 6.91141-6.860245-0.11461-56.246025-0.11768-112.49512 0-168.742169 0.013303-5.448082-2.326998-7.071046-7.360641-6.992251-11.57257 0.180102-23.159466-0.207731-34.715663 0.254803-2.703575 0.107447-6.342452 2.009773-7.77815 4.232394-5.358031 8.292873-10.153244 16.96744-14.838963 25.671683-13.132088 24.391527-26.117844 48.861848-39.115879 73.323982-1.472538 2.77316-2.660596 5.695722-3.979638 8.550747C287.124881 297.606487 286.872125 297.485737 286.619368 297.363963zM469.372645 328.203342c0-9.813506 0-18.691711 0-28.217668 2.346441-0.11768 4.488221-0.313132 6.632047-0.317225 16.047488-0.027629 32.098046 0.014326 48.143487-0.027629 8.344039-0.021489 8.760524-0.454348 8.786107-8.469905 0.026606-7.92346-0.294712-15.863293 0.105401-23.76424 0.292666-5.783727-1.632173-7.885598-7.567349-7.773034-16.244986 0.318248-32.499182 0.109494-48.751331 0.109494-2.204202 0-4.40738 0-7.094582 0 0-11.378142 0-22.227234 0-34.013675 1.972934 0 4.112668 0 6.253424 0 18.892279 0 37.784558 0.013303 56.676837-0.008186 7.013741-0.008186 8.205892-1.13587 8.268314-8.029884 0.072655-8.125051-0.042979-16.253172 0.032746-24.376177 0.050142-5.26798-2.111081-7.653307-7.684006-7.631818-34.737152 0.143263-69.475328 0.135076-104.210433 0.00614-5.154393-0.020466-7.333012 1.731434-7.323802 7.055696 0.096191 56.068993 0.106424 112.136963-0.014326 168.20391-0.013303 5.619998 2.24718 7.441483 7.641027 7.419993 33.314757-0.135076 66.63156-0.140193 99.946316 0.001023 5.776563 0.025583 8.125051-2.403746 8.058536-7.970532-0.101307-8.327666-0.11461-16.658402 0.004093-24.986067 0.078795-5.337565-1.983167-7.43125-7.628748-7.327896-17.668405 0.325411-35.346019 0.11768-53.019541 0.11768C474.428801 328.203342 472.234833 328.203342 469.372645 328.203342z"  horiz-adv-x="1024" />

    
    <glyph glyph-name="menu1" unicode="&#58888;" d="M0-212C0-212 0-65.714286 0-65.714286 0-65.714286 1228.8-65.714286 1228.8-65.714286 1228.8-65.714286 1228.8-212 1228.8-212 1228.8-212 0-212 0-212ZM0 373.142857C0 373.142857 1228.8 373.142857 1228.8 373.142857 1228.8 373.142857 1228.8 226.857143 1228.8 226.857143 1228.8 226.857143 0 226.857143 0 226.857143 0 226.857143 0 373.142857 0 373.142857ZM0 812C0 812 1228.8 812 1228.8 812 1228.8 812 1228.8 665.714286 1228.8 665.714286 1228.8 665.714286 0 665.714286 0 665.714286 0 665.714286 0 812 0 812Z"  horiz-adv-x="1229" />

    
    <glyph glyph-name="add1" unicode="&#58903;" d="M462.268854 250.217177c-117.489878 0-232.744855 0-348.913645 0 0 33.165354 0 65.398476 0 99.0499 115.610064 0 231.119845 0 348.428597 0 0 117.219725 0 233.048777 0 349.579817 34.057677 0 66.312288 0 99.946316 0 0-116.196419 0-231.730759 0-348.633259 116.910687 0 232.458329 0 348.912621 0 0-33.598212 0-65.830311 0-99.481735-115.606994 0-231.118821 0-348.427574 0 0-117.218702 0-233.048777 0-349.579817-34.057677 0-66.313312 0-99.946316 0C462.268854 17.346455 462.268854 132.883865 462.268854 250.217177z"  horiz-adv-x="1024" />

    
    <glyph glyph-name="send" unicode="&#58882;" d="M668.4 607.6C502.928 458.048 325.024 323.264 154.992 179.072c-2.512-2.128 45.424-23.968 55.952-15.04 170.96 144.992 349.744 280.592 516.128 430.992C724.64 592.816 680.848 618.848 668.4 607.6L668.4 607.6zM175.648 116.016c91.008 0.368 182.464 4.512 269.12 34.752 30.288 10.576 33.456 54.672-4.112 41.568-77.472-27.024-159.52-31.04-240.928-31.36C174.88 160.88 139.696 115.872 175.648 116.016L175.648 116.016zM667.888 604.368c-76.912-158.832-184.608-300.64-255.024-462.816-2.56-5.888 53.472-20.432 59.68-6.128 70.416 162.192 178.112 303.984 255.024 462.816C730.048 603.36 674.88 618.8 667.888 604.368L667.888 604.368zM676.976 612.304c37.648-156.752 70.496-314.56 103.904-472.272 3.696-17.456 48.384-54.288 41.536-22-33.392 157.696-66.256 315.504-103.904 472.272C714.384 607.52 669.312 644.208 676.976 612.304L676.976 612.304zM451.824 140.192c101.008-17.616 202.512-24.592 304.848-29.136 35.632-1.584 43.76 53.136 4.928 54.864-97.424 4.32-194.016 10.752-290.208 27.536C437.712 199.344 414.064 146.784 451.824 140.192L451.824 140.192zM408.016 122.768c13.312-16.448 14.352-45.44 17.392-65.984 3.136-21.072 5.856-42.048 11.04-62.752 3.296-13.184 10.656-25.792 18.784-36.56 1.568-2.08 15.744-17.568 12.624-5.104-17.984 71.904-16.976 141.312-66.016 201.856C378.144 183.504 400.384 132.192 408.016 122.768L408.016 122.768zM494.4 135.904c7.136-48.832-11.536-95.072-32.592-138.08-14.128-28.88 41.984-50.016 56.256-20.88 25.68 52.464 42.112 105.456 33.536 164.16C547.104 171.872 489.184 171.664 494.4 135.904L494.4 135.904z"  horiz-adv-x="1024" />

    
    <glyph glyph-name="main" unicode="&#58893;" d="M441.9584 245.6768 102.6048 245.6768c-8.0384 0-14.5408-6.5024-14.5408-14.5408l0-339.3536c0-8.0384 6.5024-14.5408 14.5408-14.5408l339.3536 0c8.0384 0 14.5408 6.5024 14.5408 14.5408L456.4992 231.1616C456.4736 239.2 449.9968 245.6768 441.9584 245.6768zM411.4176-77.6512 133.1456-77.6512 133.1456 200.6208l278.2976 0L411.4432-77.6512zM921.3952 245.6768 582.0416 245.6768c-8.0384 0-14.5408-6.5024-14.5408-14.5408l0-339.3536c0-8.0384 6.5024-14.5408 14.5408-14.5408l339.3536 0c8.0384 0 14.5408 6.5024 14.5408 14.5408L935.936 231.1616C935.9104 239.2 929.408 245.6768 921.3952 245.6768zM890.8544-77.6512 612.5824-77.6512 612.5824 200.6208l278.2976 0L890.88-77.6512zM441.9584 725.1136 102.6048 725.1136c-8.0384 0-14.5408-6.5024-14.5408-14.5408l0-339.3536c0-8.0384 6.5024-14.5408 14.5408-14.5408l339.3536 0c8.0384 0 14.5408 6.5024 14.5408 14.5408L456.4992 710.5984C456.4736 718.6368 449.9968 725.1136 441.9584 725.1136zM411.4176 401.7856 133.1456 401.7856 133.1456 680.0576l278.2976 0L411.4432 401.7856zM921.3952 725.1136 582.0416 725.1136c-8.0384 0-14.5408-6.5024-14.5408-14.5408l0-339.3536c0-8.0384 6.5024-14.5408 14.5408-14.5408l339.3536 0c8.0384 0 14.5408 6.5024 14.5408 14.5408L935.936 710.5984C935.9104 718.6368 929.408 725.1136 921.3952 725.1136zM890.8544 401.7856 612.5824 401.7856 612.5824 680.0576l278.2976 0L890.88 401.7856z"  horiz-adv-x="1024" />

    
    <glyph glyph-name="jian3" unicode="&#58892;" d="M2.621 361.449h1018.76v-146.895h-1018.76v146.895z"  horiz-adv-x="1024" />

    
    <glyph glyph-name="up1" unicode="&#58938;" d="M21.49 129.8c0 15.021 5.711 30.036 17.17 41.5l430.195 430.178c22.882 22.916 60.038 22.916 82.956 0L982.051 171.3c22.916-22.922 22.916-60.036 0-82.958-22.883-22.916-60.039-22.916-82.956 0L510.351 477.025 121.656 88.341c-22.923-22.916-60.039-22.916-82.962 0C27.2 99.764 21.49 114.784 21.49 129.8L21.49 129.8z"  horiz-adv-x="1024" />

    
    <glyph glyph-name="send1" unicode="&#58990;" d="M955.392 704.352 777.6 32.8c-10.048-37.888-18.368-68.8-18.56-68.736-0.192 0.064-0.32 0.768-0.384 0.96-0.064 0.192-29.056 12.48-64.448 27.264l-116.608 48.832c-35.392 14.784-93.504 38.592-129.152 52.736l-12.288 4.928c-35.648 14.144-43.328 49.216-17.216 77.888l361.024 397.12c26.112 28.736 22.912 32.32-7.168 8L316.16 211.68C285.952 187.488 232.256 179.616 196.736 194.016L91.584 236.768C56.064 251.296 54.656 278.048 88.512 296.288l823.552 443.84C945.92 758.304 965.376 742.24 955.392 704.352zM331.648 70.752l84.224-32.128c36.928-14.016 49.28-51.008 27.456-81.984 0 0-77.248-110.08-75.072-104 2.24 6.208-75.904 181.312-75.904 181.376C277.056 68.32 294.72 84.832 331.648 70.752z"  horiz-adv-x="1024" />

    
    <glyph glyph-name="done" unicode="&#58883;" d="M931.904 556.384l-488.064-500.48-255.488 265.6 91.392 93.696 165.824-170.048 403.968 414.272c-88.576 84.48-208.192 136.64-340.16 136.64-272.448 0-493.376-220.928-493.376-493.376 0-272.512 220.928-493.376 493.376-493.376 272.512 0 493.376 220.864 493.376 493.376C1002.752 395.552 976.576 482.208 931.904 556.384z"  horiz-adv-x="1024" />

    
    <glyph glyph-name="moon" unicode="&#58997;" d="M557.553778-164.355556c-257.265778 0-466.56 207.160889-466.56 464.426667 0 253.923556 206.577778 464.284444 460.501333 464.284444 0.128 0 0.241778 0 0.355556 0 10.766222 0 20.622222-3.953778 25.443556-13.610667 4.878222-9.756444 3.740444-20.394667-2.915556-29.027556-55.722667-72.220444-85.162667-158.108444-85.162667-249.372444 0-225.891556 183.779556-409.386667 409.671111-409.386667l5.248 0.256c10.325333 0.142222 20.977778-5.859556 25.841778-15.644444 4.892444-9.756444 3.768889-21.418667-2.915556-30.051556C837.902222-98.08 703.203556-164.355556 557.553778-164.355556zM495.274667 706.983111C299.192889 676.718222 147.882667 505.838222 147.882667 302.190222c0-225.877333 183.779556-409.656889 409.671111-409.656889 108.686222 0 210.403556 42.055111 286.577778 116.977778-231.566222 27.192889-411.804444 224.625778-411.804444 463.36C432.327111 556.298667 453.944889 636.170667 495.274667 706.983111zM578.830222-67.132444c-186.865778 0-345.784889 133.418667-377.841778 317.269333-1.351111 7.722667 3.84 15.118222 11.562667 16.440889 7.850667 1.336889 15.118222-3.84 16.455111-11.562667 29.681778-170.183111 176.810667-293.703111 349.824-293.703111 7.864889 0 14.222222-6.357333 14.222222-14.222222S586.695111-67.132444 578.830222-67.132444zM209.991111 280.8c-7.537778 0-13.838222 6.997333-14.193778 14.606222-0.312889 6.584889-0.483556 13.795556-0.483556 20.465778 0 7.864889 6.357333 14.492444 14.222222 14.492444s14.222222-6.229333 14.222222-14.094222c0-6.229333 0.170667-13.425778 0.455111-19.584 0.369778-7.850667-5.674667-15.886222-13.525333-15.886222C210.446222 280.8 210.218667 280.8 209.991111 280.8zM622.350222 502.069333m-25.344 0a1.782 1.782 0 1 0 50.688 0 1.782 1.782 0 1 0-50.688 0ZM787.072 623.726222m-25.344 0a1.782 1.782 0 1 0 50.688 0 1.782 1.782 0 1 0-50.688 0ZM731.960889 396.696889m-25.344 0a1.782 1.782 0 1 0 50.688 0 1.782 1.782 0 1 0-50.688 0Z"  horiz-adv-x="1024" />

    
    <glyph glyph-name="menu2" unicode="&#58941;" d="M93.535691 624.928619l932.493276 0c51.660481 0 93.535691 41.875209 93.535691 93.535691s-41.875209 93.535691-93.535691 93.535691L93.535691 812C41.875209 812 0 770.124791 0 718.464309S41.875209 624.928619 93.535691 624.928619zM1026.028966 393.56449 93.535691 393.56449c-51.660481 0-93.535691-41.875209-93.535691-93.535691 0-51.646091 41.875209-93.535691 93.535691-93.535691l932.493276 0c51.660481 0 93.535691 41.875209 93.535691 93.535691C1119.564657 351.689281 1077.689448 393.56449 1026.028966 393.56449zM1026.028966-24.92858 93.535691-24.92858c-51.660481 0-93.535691-41.860819-93.535691-93.535691 0-51.660481 41.875209-93.535691 93.535691-93.535691l932.493276 0c51.660481 0 93.535691 41.875209 93.535691 93.535691C1119.564657-66.789399 1077.689448-24.92858 1026.028966-24.92858z"  horiz-adv-x="1120" />

    
    <glyph glyph-name="moon1" unicode="&#59220;" d="M524.769411-211.897612c-140.171583 0-271.947206 54.573743-371.060495 153.687032s-153.687032 230.888911-153.687032 371.060495c0 115.239676 37.013899 223.977603 106.9973 314.490152 33.532647 43.362064 73.669433 81.143886 119.335267 112.321568 46.024198 31.433657 96.655935 55.444056 150.410559 71.263274 9.829417 2.918108 20.426757-0.358364 26.979702-8.242376s7.730427-18.890911 3.071693-28.0036c-33.020698-64.351965-48.379162-125.683432-48.379162-193.10709 0-239.950405 195.20608-435.156485 435.156485-435.156485 67.423658 0 128.755125 15.358464 193.10709 48.379162 9.112689 4.658734 20.119588 3.481252 28.0036-3.071693s11.109289-17.150285 8.242376-26.979702c-15.870413-53.754625-39.829617-104.386362-71.263274-150.410559-31.177682-45.665833-68.959504-85.80262-112.321568-119.335267-90.512549-69.983402-199.30167-106.9973-314.490152-106.9973zM336.37225 742.118988c-172.731527-73.976602-285.155485-240.052795-285.155485-429.269074 0-261.093891 212.458754-473.552646 473.552646-473.552646 189.216279 0 355.292471 112.475153 429.269074 285.155485-52.423558-19.607639-105.359064-29.181082-160.495951-29.181082-129.932607 0-252.032397 50.580542-343.876013 142.424158s-142.475353 213.994601-142.475353 343.927208c0 55.136886 9.624638 108.072393 29.181082 160.495951z"  horiz-adv-x="1024" />

    
    <glyph glyph-name="left" unicode="&#58934;" d="M750.32064 759.83744 278.79936 300 750.32064-159.83744 750.32064 9.12256 444.62592 300.0768 750.32064 590.91328Z"  horiz-adv-x="1024" />

    
    <glyph glyph-name="square1" unicode="&#60665;" d="M950.857143 658.285714l0-548.571429q0-68.022857-48.274286-116.297143t-116.297143-48.274286l-548.571429 0q-68.022857 0-116.297143 48.274286t-48.274286 116.297143l0 548.571429q0 68.022857 48.274286 116.297143t116.297143 48.274286l548.571429 0q68.022857 0 116.297143-48.274286t48.274286-116.297143z"  horiz-adv-x="1024" />

    
    <glyph glyph-name="jian4" unicode="&#58909;" d="M120.012 397.984l783.972 0 0-195.968-783.972 0 0 195.968Z"  horiz-adv-x="1024" />

    
    <glyph glyph-name="jian" unicode="&#59559;" d="M942.404403 312.280985 81.595597 312.280985c-39.585804 0-71.733465 32.093474-71.733465 71.733465 0 39.585804 32.147661 71.708178 71.733465 71.708178l860.808805 0c39.639992 0 71.733465-32.122374 71.733465-71.708178C1014.137868 344.370846 982.040782 312.280985 942.404403 312.280985z"  horiz-adv-x="1024" />

    
    <glyph glyph-name="left1" unicode="&#59101;" d="M436.726619-54.063057c-1.438769 1.77339-2.732228 3.692089-4.335748 5.299703C290.482861 93.391273 148.552338 235.522364 6.581905 377.614569c-1.632173 1.633197-3.827165 2.706645-5.759167 4.042059 0.001023 0.836041 0.00307 1.673106 0.004093 2.51017 1.932002 1.335415 4.124947 2.410909 5.757121 4.046153 141.971455 142.091182 283.900955 284.223297 425.807942 426.377924 1.603521 1.605567 2.895957 3.524267 4.333702 5.297656 0.36225 0 0.724501 0 1.086751 0 3.462868-3.65218 6.850012-7.382131 10.400884-10.946306 19.044752-19.122523 38.115086-38.219463 57.231469-57.269331 1.39272-1.388627 3.215228-2.347464 5.77861-4.178159C388.813377 625.556545 267.496333 504.711246 145.779178 383.464811c122.178667-121.714086 243.401566-242.475474 365.007181-363.618555-2.346441-2.482541-3.635807-3.913123-4.993734-5.27412-21.497617-21.536502-43.007513-43.058678-64.494896-64.606437-1.251503-1.25355-2.326998-2.681062-3.485381-4.028757C437.45112-54.063057 437.087846-54.063057 436.726619-54.063057zM951.965383 819.888532c14.490016-14.663978 28.952402-29.356608 43.479257-43.9817 9.42772-9.492188 18.950607-18.889209 29.272697-29.169343C903.068743 625.593384 781.752724 504.777761 659.933237 383.462764c122.286114-121.772414 243.518223-242.49287 365.126908-363.589902-2.40477-2.542916-3.694135-3.973498-5.054109-5.335519-21.494547-21.535479-43.001373-43.057655-64.48978-64.599274-1.257643-1.25969-2.368954-2.664689-3.549849-4.001127-0.36225 0-0.724501 0-1.086751 0-1.280156 1.65264-2.399653 3.466961-3.864004 4.933359-142.16486 142.408407-284.352233 284.793278-426.580538 427.13824-1.506307 1.50733-3.563152 2.464121-5.597485 3.835352 2.565429 2.712785 3.873214 4.164856 5.252631 5.54632C662.273539 529.779178 804.465005 672.159956 946.628842 814.568363c1.594311 1.596358 2.840698 3.538593 4.249791 5.320169C951.240883 819.888532 951.603133 819.888532 951.965383 819.888532z"  horiz-adv-x="1026" />

    
    <glyph glyph-name="menu3" unicode="&#58922;" d="M891.525338-57.521832 618.191042-57.521832c-37.735439 0-68.333318 30.594809-68.333318 68.333318l0 273.335319c0 37.737486 30.597879 68.334341 68.333318 68.334341l273.333272 0c37.738509 0 68.333318-30.596855 68.333318-68.334341l0-273.335319C959.858656-26.926 929.263847-57.521832 891.525338-57.521832zM891.525338 416.54523 618.191042 416.54523c-37.735439 0-68.333318 30.596855-68.333318 68.333318l0 273.335319c0 37.736463 30.597879 68.333318 68.333318 68.333318l273.333272 0c37.738509 0 68.333318-30.596855 68.333318-68.333318l0-273.335319C959.858656 447.142086 929.263847 416.54523 891.525338 416.54523zM917.150972 726.891488c0 29.095665-23.589254 52.676733-52.676733 52.676733L653.785725 779.568221c-29.087479 0-52.677756-23.581068-52.677756-52.676733l0-210.69056c0-29.095665 23.590278-52.676733 52.677756-52.676733l210.689536 0c29.087479 0 52.676733 23.581068 52.676733 52.676733L917.151995 726.891488zM404.649552-57.521832l-273.335319 0c-37.736463 0-68.333318 30.594809-68.333318 68.333318l0 273.335319c0 37.737486 30.596855 68.334341 68.333318 68.334341l273.335319 0c37.737486 0 68.333318-30.596855 68.333318-68.334341l0-273.335319C472.98287-26.926 442.387038-57.521832 404.649552-57.521832zM404.649552 416.54523l-273.335319 0c-37.736463 0-68.333318 30.596855-68.333318 68.333318l0 273.335319c0 37.736463 30.596855 68.333318 68.333318 68.333318l273.335319 0c37.737486 0 68.333318-30.596855 68.333318-68.333318l0-273.335319C472.98287 447.142086 442.387038 416.54523 404.649552 416.54523z"  horiz-adv-x="1024" />

    
    <glyph glyph-name="history" unicode="&#58939;" d="M268.452101 222.22757l245.474784 0c5.065366 13.236466 11.045567 25.876344 18.073634 37.947264L268.446985 260.174833l0-37.947264L268.452101 222.22757zM610.063433 487.874789 268.499174 487.874789l0-37.947264 341.564259 0L610.063433 487.874789 610.063433 487.874789zM154.62259-24.485415c-20.960381 0-37.947264 17.002232-37.947264 37.947264L116.675326 753.643782c0 20.962427 17.005302 37.947264 37.947264 37.947264l588.238358 0c20.98801 0 37.981033-17.005302 37.981033-37.947264l0-361.525893c12.879332-0.906649 25.527396-2.551102 37.922704-5.270027L818.764686 753.706203c0 41.892109-33.955346 75.912947-75.912947 75.912947L154.61645 829.61915c-41.961694 0-75.9109-33.982976-75.9109-75.912947l0-740.176816c0-41.963741 33.9533-75.912947 75.9109-75.912947l421.554058 0c-11.881608 11.589966-22.626323 24.292266-32.06837 37.947264L154.650219-24.436296 154.62259-24.485415zM610.063433 345.198276l0 28.836769L268.499174 374.035044l0-37.95238 329.414545 0c3.922333 3.148713 7.972579 6.235005 12.178367 9.134031L610.063433 345.198276zM761.646803 317.140243c-104.620779 0-189.56338-84.838224-189.56338-189.932794 0-104.819301 84.942601-189.653431 189.56338-189.653431 105.023962 0 190.041264 84.903715 190.041264 189.653431C951.688067 232.340905 866.62881 317.140243 761.646803 317.140243L761.646803 317.140243zM761.705132-24.485415c-83.681888 0-151.646815 67.895343-151.646815 151.703097 0 84.126003 67.89432 151.972227 151.646815 151.972227 84.023672 0 151.97018-67.831898 151.97018-151.972227C913.675312 43.499979 845.73392-24.485415 761.705132-24.485415L761.705132-24.485415zM610.063433 601.723743 268.499174 601.723743l0-37.945217 341.564259 0L610.063433 601.723743 610.063433 601.723743zM780.816398 222.22757l-37.974893 0 0-113.862257 113.898073 0L856.739579 146.312576l-75.912947 0 0 75.9109L780.816398 222.22757zM780.816398 222.22757"  horiz-adv-x="1024" />

    
    <glyph glyph-name="new2" unicode="&#58897;" d="M272.035208 399.768125l479.209176 0 0-59.901275-479.209176 0 0 59.901275ZM481.689159 609.423099l59.901275 0 0-479.212246-59.901275 0 0 479.212246ZM511.999488 844.812177c-254.480902 0-460.810131-206.331275-460.810131-460.812177 0-254.479879 206.329229-460.810131 460.810131-460.810131 254.479879 0 460.809107 206.330252 460.809107 460.810131C972.808596 638.480902 766.478344 844.812177 511.999488 844.812177zM511.999488-120.72327c-278.70563 0-504.72327 226.016617-504.72327 504.722246 0 278.70563 226.016617 504.724293 504.72327 504.724293 278.706653 0 504.72327-226.01764 504.72327-504.724293C1016.721735 105.293347 790.706141-120.72327 511.999488-120.72327z"  horiz-adv-x="1024" />

    
    <glyph glyph-name="cloudlightningmoon" unicode="&#58913;" d="M886.545067 384c-8.4992 76.8-73.591467 136.533333-152.6784 136.533333-36.078933 0-69.256533-12.458667-95.470933-33.28C608.733867 585.5232 517.5296 657.066667 409.6 657.066667c-131.959467 0-238.933333-106.973867-238.933333-238.933333 0-12.834133 1.024-25.429333 2.9696-37.6832C113.2544 366.318933 68.266667 312.046933 68.266667 247.466667c0-75.400533 61.2352-136.533333 136.430933-136.533333l157.115733 0-27.306667-68.266667L204.8 42.666667c-113.083733 0-204.8 91.682133-204.8 204.8 0 75.6736 41.233067 141.9264 102.468267 177.390933 3.584 166.570667 139.707733 300.475733 307.131733 300.475733 49.0496 0 95.402667-11.502933 136.533333-31.9488 0.989867 93.422933 64.477867 171.8272 150.664533 195.3792 17.237333 4.7104 35.396267 7.236267 54.135467 7.236267 8.430933 0 16.725333-0.512 24.8832-1.501867-15.735467-24.098133-24.8832-52.906667-24.8832-83.831467 0-84.821333 68.778667-153.6 153.6-153.6 17.339733 0 34.030933 2.8672 49.5616 8.192-6.724267-53.111467-33.757867-99.874133-73.1136-132.232533 26.760533-23.722667 47.752533-53.8624 60.586667-87.9616C1028.437333 421.307733 1092.266667 341.845333 1092.266667 247.466667c0-112.878933-91.682133-204.8-204.8-204.8l-170.666667 0 68.266667 68.266667 102.5024 0c75.332267 0 136.430933 61.269333 136.430933 136.533333 0 75.400533-61.2352 136.533333-136.430933 136.533333L886.545067 384zM818.039467 572.279467c11.332267 6.417067 21.640533 14.370133 30.651733 23.620267-95.1296 24.6784-165.4784 110.865067-166.024533 213.572267-40.823467-23.620267-68.266667-67.720533-68.266667-118.272 0-19.524267 4.096-38.126933 11.502933-54.920533 16.6912-16.554667 31.505067-35.0208 44.066133-55.022933 0.580267-0.443733 1.160533-0.853333 1.774933-1.262933 19.729067 5.7344 40.584533 8.8064 62.1568 8.8064C763.665067 588.8 792.098133 582.929067 818.039467 572.279467L818.039467 572.279467zM502.237867 281.6 648.533333 281.6l-83.592533-170.666667L682.666667 110.933333l-238.933333-238.933333 48.776533 170.666667L409.6 42.666667 502.237867 281.6zM886.545067 384c-8.4992 76.8-73.591467 136.533333-152.6784 136.533333-36.078933 0-69.256533-12.458667-95.470933-33.28C608.733867 585.5232 517.5296 657.066667 409.6 657.066667c-131.959467 0-238.933333-106.973867-238.933333-238.933333 0-12.834133 1.024-25.429333 2.9696-37.6832C113.2544 366.318933 68.266667 312.046933 68.266667 247.466667c0-75.400533 61.2352-136.533333 136.430933-136.533333l157.115733 0-27.306667-68.266667L204.8 42.666667c-113.083733 0-204.8 91.682133-204.8 204.8 0 75.6736 41.233067 141.9264 102.468267 177.390933 3.584 166.570667 139.707733 300.475733 307.131733 300.475733 49.0496 0 95.402667-11.502933 136.533333-31.9488 0.989867 93.422933 64.477867 171.8272 150.664533 195.3792 17.237333 4.7104 35.396267 7.236267 54.135467 7.236267 8.430933 0 16.725333-0.512 24.8832-1.501867-15.735467-24.098133-24.8832-52.906667-24.8832-83.831467 0-84.821333 68.778667-153.6 153.6-153.6 17.339733 0 34.030933 2.8672 49.5616 8.192-6.724267-53.111467-33.757867-99.874133-73.1136-132.232533 26.760533-23.722667 47.752533-53.8624 60.586667-87.9616C1028.437333 421.307733 1092.266667 341.845333 1092.266667 247.466667c0-112.878933-91.682133-204.8-204.8-204.8l-170.666667 0 68.266667 68.266667 102.5024 0c75.332267 0 136.430933 61.269333 136.430933 136.533333 0 75.400533-61.2352 136.533333-136.430933 136.533333L886.545067 384zM818.039467 572.279467c11.332267 6.417067 21.640533 14.370133 30.651733 23.620267-95.1296 24.6784-165.4784 110.865067-166.024533 213.572267-40.823467-23.620267-68.266667-67.720533-68.266667-118.272 0-19.524267 4.096-38.126933 11.502933-54.920533 16.6912-16.554667 31.505067-35.0208 44.066133-55.022933 0.580267-0.443733 1.160533-0.853333 1.774933-1.262933 19.729067 5.7344 40.584533 8.8064 62.1568 8.8064C763.665067 588.8 792.098133 582.929067 818.039467 572.279467L818.039467 572.279467zM502.237867 281.6 648.533333 281.6l-83.592533-170.666667L682.666667 110.933333l-238.933333-238.933333 48.776533 170.666667L409.6 42.666667 502.237867 281.6z"  horiz-adv-x="1093" />

    
    <glyph glyph-name="207" unicode="&#58905;" d="M512 288h-384c-35.2 0-64 28.8-64 64s28.8 64 64 64h416c105.6 0 192 86.4 192 192s-86.4 192-192 192c-17.6 0-32-14.4-32-32s14.4-32 32-32c70.4 0 128-57.6 128-128s-57.6-128-128-128h-416c-70.4 0-128-57.6-128-128s57.6-128 128-128h384c52.8 0 96-43.2 96-96s-43.2-96-96-96c-17.6 0-32-14.4-32-32s14.4-32 32-32c88 0 160 72 160 160s-72 160-160 160zM192 576c0-17.6 14.4-32 32-32h192c52.8 0 96 43.2 96 96s-43.2 96-96 96c-17.6 0-32-14.4-32-32s14.4-32 32-32c17.6 0 32-14.4 32-32s-14.4-32-32-32h-192c-17.6 0-32-14.4-32-32zM672 384c0-17.6 14.4-32 32-32h96c88 0 160 72 160 160s-72 160-160 160c-17.6 0-32-14.4-32-32s14.4-32 32-32c52.8 0 96-43.2 96-96 0-52.8-43.2-96-96-96h-96c-17.6 0-32-14.4-32-32zM896 288h-192c-17.6 0-32-14.4-32-32s14.4-32 32-32h192c35.2 0 64-28.8 64-64s-28.8-64-64-64c-17.6 0-32-14.4-32-32s14.4-32 32-32c70.4 0 128 57.6 128 128 0 70.4-57.6 128-128 128z"  horiz-adv-x="1024" />

    
    <glyph glyph-name="jian1" unicode="&#59104;" d="M745.695944 426.440917 253.598025 426.440917C233.226384 426.440917 216.719577 409.934109 216.719577 389.562469s16.506808-36.914568 36.878448-36.914568l492.061799 0c20.37164 0 36.914568 16.542928 36.914568 36.914568S766.067584 426.440917 745.695944 426.440917z"  horiz-adv-x="1024" />

    
    <glyph glyph-name="new3" unicode="&#59097;" d="M377.152 159.36 205.248 55.264C189.6 47.968 175.52 63.072 182.816 77.728L286.88 249.76 377.152 159.36 377.152 159.36ZM679.648 664.896 792.832 553.216 433.152 193.312C391.04 235.488 332.704 293.856 320.768 305.792L679.648 664.896 679.648 664.896ZM792.832 778.144C805.248 790.592 825.376 790.592 837.824 778.144L905.248 710.688C917.664 698.24 917.664 678.112 905.248 665.696L837.824 598.208 727.008 712.32 792.832 778.144 792.832 778.144ZM259.52 317.824 121.92 39.264C110.368 7.872 135.456-20.224 166.816-5.664L445.184 132.032C457.184 134.368 468.832 139.04 478.112 148.32L972.672 643.232C997.504 668.032 997.504 708.352 972.672 733.184L860.288 845.664C835.424 870.496 795.2 870.496 770.368 845.664L275.808 350.784C266.496 341.472 261.888 329.824 259.52 317.824L259.52 317.824ZM960 512 960 0C960-35.168 925.248-64.384 890.144-64.384L127.168-64.384C92.064-64.384 63.584-35.904 63.584-0.736L63.584 762.72C63.584 797.888 92.864 832 128 832L640 832 640 896 128 896C57.792 896 0 832.992 0 762.72L0-0.736C0-71.04 56.928-128 127.168-128L890.144-128C960.384-128 1024-70.272 1024 0L1024 512 960 512 960 512Z"  horiz-adv-x="1024" />

    
    <glyph glyph-name="square2" unicode="&#59293;" d="M408.038742 883.419474 51.937394 883.419474c-21.951965 0-39.747259-17.747199-39.747259-39.637766l0-356.662119c0-21.890566 17.796318-39.637766 39.747259-39.637766l356.101347 0c21.951965 0 39.748283 17.747199 39.748283 39.637766L447.787024 843.781708C447.787024 865.673298 429.990706 883.419474 408.038742 883.419474zM973.187219 883.419474l-356.100324 0c-21.951965 0-39.748283-17.747199-39.748283-39.637766l0-356.662119c0-21.890566 17.796318-39.637766 39.748283-39.637766l356.100324 0c21.950941 0 39.747259 17.747199 39.747259 39.637766L1012.934478 843.781708C1012.934478 865.673298 995.139184 883.419474 973.187219 883.419474zM408.038742 318.611757 51.937394 318.611757c-21.951965 0-39.747259-17.748223-39.747259-39.637766l0-356.660072c0-21.89159 17.796318-39.638789 39.747259-39.638789l356.101347 0c21.951965 0 39.748283 17.748223 39.748283 39.638789L447.787024 278.973992C447.787024 300.864558 429.990706 318.611757 408.038742 318.611757zM973.187219 318.611757l-356.100324 0c-21.951965 0-39.748283-17.748223-39.748283-39.637766l0-356.660072c0-21.89159 17.796318-39.638789 39.748283-39.638789l356.100324 0c21.950941 0 39.747259 17.748223 39.747259 39.638789L1012.934478 278.973992C1012.934478 300.864558 995.139184 318.611757 973.187219 318.611757z"  horiz-adv-x="1024" />

    
    <glyph glyph-name="done1" unicode="&#58916;" d="M512 829.954795c-246.295476 0-445.955818-199.660342-445.955818-445.955818 0-246.293429 199.660342-445.953771 445.955818-445.953771s445.955818 199.660342 445.955818 445.953771C957.955818 630.294452 758.295476 829.954795 512 829.954795zM442.129676 165.654087 232.516658 375.266082l87.338161 87.338161 122.274858-122.274858 262.014482 262.014482 87.338161-87.338161L442.129676 165.654087z"  horiz-adv-x="1024" />

    
    <glyph glyph-name="new4" unicode="&#59202;" d="M1011.264 632.733C1011.054 770.482 885.977 882.12 731.75 882.12l-58.711 0L393.424 882.12l-101.278 0.095c-154.225 0-279.301-111.453-279.406-249.296l-0.317-498.968c-0.209-137.563 124.553-249.483 278.988-249.577l102.012-0.188 0 0.096 249.945 0L643.368-116l89.222 0.187c154.434 0.188 279.197 112.016 278.989 249.578L1011.264 632.733zM755.323 83.631l-92.411 0L356.109 571.984l-3.38 0 0-488.459-79.21 0 0 604 99.17 0 303.426-488.46 0 488.46 79.21 0 0-603.895L755.323 83.63z"  horiz-adv-x="1024" />

    
    <glyph glyph-name="done2" unicode="&#58891;" d="M512-128C229.216-128 0 101.216 0 384 0 666.784 229.216 896 512 896 794.784 896 1024 666.784 1024 384 1024 101.216 794.784-128 512-128ZM512 800C282.24 800 96 613.76 96 384 96 154.24 282.24-32 512-32 741.76-32 928 154.24 928 384 928 613.76 741.76 800 512 800ZM466.016 208.32C465.632 207.904 465.504 207.328 465.088 206.912 446.272 188.096 415.744 188.096 396.928 206.912L269.92 333.92C251.104 352.768 251.104 383.264 269.92 402.08 288.736 420.896 319.232 420.896 338.08 402.08L432.256 307.904 686.624 562.272C705.024 580.672 734.88 580.672 753.28 562.272 771.712 543.872 771.712 514.016 753.28 495.616L466.016 208.32Z"  horiz-adv-x="1024" />

    
    <glyph glyph-name="history1" unicode="&#58887;" d="M454 175.4l237 0 0-59.1-237 0 0 59.1ZM454 293.5l207.4 0 0-59.1-207.4 0 0 59.1ZM600.6 588.6 541.5 588.6 541.5 500.2 454 500.2 454 441.1 541.5 441.1 541.5 352.5 600.6 352.5 600.6 441.1 691 441.1 691 500.2 600.6 500.2ZM306-60.8l471.4 0c49 0 88.9 39.7 88.9 88.6L866.3 618.3c0 48.8-39.9 88.6-88.9 88.6l-56.8 0 0 29.5c0 48.8-39.9 88.6-88.9 88.6L246.6 825c-49 0-88.9-39.7-88.9-88.6l0-708.6c0-48.8 39.9-88.6 88.9-88.6L306-60.8M276.4 618.3l0-590.5c0-16.3-13.3-29.5-29.6-29.5l-0.1 0c-16.3 0-29.6 13.2-29.6 29.5L217.1 736.4c0 16.3 13.3 29.5 29.6 29.5l385.1 0c16.3 0 29.6-13.2 29.6-29.5l0-29.5L365.2 706.9C316.2 706.8 276.4 667.1 276.4 618.3zM807 27.7c0-16.3-13.3-29.5-29.6-29.5L330.5-1.8c3.3 9.2 5.1 19.2 5.1 29.5L335.6 618.3c0 16.3 13.3 29.5 29.6 29.5l412.1 0c16.3 0 29.6-13.2 29.6-29.5L806.9 27.7z"  horiz-adv-x="1024" />

    
    <glyph glyph-name="yiwancheng" unicode="&#58902;" d="M511.95733 895.487957c-282.476873 0-511.445287-228.968414-511.445287-511.445287s228.968414-511.445287 511.445287-511.445287c282.476873 0 511.445287 228.968414 511.445287 511.445287S794.519543 895.487957 511.95733 895.487957zM509.909159-27.127594c-226.408201 0-409.975498 184.16468-409.975498 411.426286s183.567297 411.426286 409.975498 411.426286 409.975498-184.16468 409.975498-411.426286S736.31736-27.127594 509.909159-27.127594zM804.504375 534.156513 785.217435 554.467539c-15.958663 16.812068-41.902159 16.812068-57.860822 0L451.365614 263.712643l-133.984499 141.153096c-15.958663 16.812068-41.902159 16.812068-57.860822 0L240.148012 384.554713c-15.958663-16.812068-15.958663-44.12101 0-61.018418l174.777231-184.16468c9.899492-10.411534 23.553963-13.654471 36.35503-11.094258 12.801067-2.560213 26.455538 0.682724 36.35503 11.094258l316.783732 333.766481C820.463039 489.950163 820.463039 517.259105 804.504375 534.156513z"  horiz-adv-x="1024" />

    
    <glyph glyph-name="new5" unicode="&#58884;" d="M634.618579-127.995894 58.144186-127.995894C26.117945-127.995894 0.015911-100.575773 0.015911-67.234524L0.015911 595.22968 286.717393 895.608885l423.219006 0C745.761893 899.629873 772.014829 872.132762 768.064673 838.718628l0.367504-342.782819-0.439362 0 0-51.987465-69.17085 0-10.676098 0 0 51.987465L688.145866 815.90668 303.976742 815.90668l0-239.97918L80.079461 575.9275l0-624.076446 554.539118 0L634.618579-127.995894 634.618579-127.995894zM1023.983062 200.749909 840.749396 200.749909 840.749396 383.990761 695.46002 383.990761l0-183.168993L512.003593 200.821768l0-145.290403 183.234693 0 0-183.457453 145.360208 0L840.598493 55.317843l183.385595 0L1023.984089 200.749909 1023.983062 200.749909zM1023.983062 200.749909"  horiz-adv-x="1024" />

    
    <glyph glyph-name="history2" unicode="&#58964;" d="M716.8 688.388096 716.8 792.324096C716.8 849.606656 670.99648 896.004096 614.5024 896.004096L102.2976 896.004096C45.80352 896.004096 0 849.586176 0 792.324096L0 170.244096C0 112.951296 45.80352 66.564096 102.2976 66.564096L234.78272 66.564096C222.40256 99.086336 213.6064 133.369856 208.86528 168.943616 146.52416 168.943616 102.4 168.953856 102.4 168.964096 102.4 168.964096 102.37952 793.604096 102.2976 793.604096 102.2976 793.604096 614.4 793.634816 614.4 793.604096 614.4 793.604096 614.4 751.149056 614.41024 688.388096 631.21408 690.251776 648.2944 691.204096 665.6 691.204096 682.9056 691.204096 699.98592 690.241536 716.8 688.388096M204.8 486.4C204.8 514.67264 227.79904 537.6 255.9488 537.6L307.2512 537.6C335.50336 537.6 358.4 514.62144 358.4 486.4 358.4 458.12736 335.40096 435.2 307.2512 435.2L255.9488 435.2C227.69664 435.2 204.8 458.17856 204.8 486.4M204.8 640C204.8 668.27264 227.6352 691.2 256.04096 691.2L460.75904 691.2C489.05216 691.2 512 668.22144 512 640 512 611.72736 489.1648 588.8 460.75904 588.8L256.04096 588.8C227.74784 588.8 204.8 611.77856 204.8 640M716.8 281.6 716.8 384.01024C716.8 412.25216 693.87264 435.2 665.6 435.2 637.37856 435.2 614.4 412.28288 614.4 384.01024L614.4 230.38976C614.4 216.2688 620.1344 203.4688 629.39136 194.2016 638.65856 184.94464 651.45856 179.2 665.58976 179.2L819.21024 179.2C847.45216 179.2 870.4 202.12736 870.4 230.4 870.4 258.62144 847.48288 281.6 819.21024 281.6L716.8 281.6ZM665.6-25.6C524.21632-25.6 409.6 89.01632 409.6 230.4 409.6 371.78368 524.21632 486.4 665.6 486.4 806.98368 486.4 921.6 371.78368 921.6 230.4 921.6 89.01632 806.98368-25.6 665.6-25.6M665.6 588.8C467.6608 588.8 307.2 428.3392 307.2 230.4 307.2 32.4608 467.6608-128 665.6-128 863.5392-128 1024 32.4608 1024 230.4 1024 428.3392 863.5392 588.8 665.6 588.8"  horiz-adv-x="1024" />

    
    <glyph glyph-name="left2" unicode="&#58972;" d="M837.15 750.992c13.399 13.536 13.399 35.475 0 49.011-13.381 13.522-35.114 13.537-48.512 0l-392.108-396.011c-13.399-13.536-13.399-35.473 0-49.011l392.108-396.016c13.4-13.517 35.114-13.537 48.512 0 13.399 13.538 13.399 35.485 0.020 49.021l-357.602 371.496 357.581 371.51zM579.277 750.993c13.399 13.536 13.399 35.475 0 49.011-13.381 13.522-35.114 13.537-48.512 0l-392.108-396.011c-13.399-13.536-13.399-35.473 0-49.011l392.108-396.016c13.4-13.517 35.114-13.537 48.512 0 13.399 13.538 13.399 35.485 0.020 49.021l-357.602 371.496 357.581 371.51z"  horiz-adv-x="1024" />

    
    <glyph glyph-name="jian5" unicode="&#59021;" d="M0 486.4l1024 0 0-204.8L0 281.6 0 486.4z"  horiz-adv-x="1024" />

    
    <glyph glyph-name="new01" unicode="&#58899;" d="M512 768C299.936 768 128 596.064 128 384c0-212.064 171.936-384 384-384s384 171.936 384 384C896 596.064 724.064 768 512 768zM512 64c-176.448 0-320 143.552-320 320 0 176.448 143.552 320 320 320s320-143.552 320-320C832 207.552 688.448 64 512 64zM672 414.528l-129.472 0L542.528 544c0 16.832-13.664 30.528-30.528 30.528S481.472 560.832 481.472 544l0-129.472L352 414.528c-16.832 0-30.528-13.664-30.528-30.528s13.664-30.528 30.528-30.528l129.472 0L481.472 224c0-16.832 13.664-30.496 30.528-30.496s30.528 13.664 30.528 30.496l0 129.472L672 353.472c16.832 0 30.496 13.664 30.496 30.528S688.832 414.528 672 414.528z"  horiz-adv-x="1024" />

    
    <glyph glyph-name="cat1" unicode="&#58965;" d="M284.596383 535.478892c-38.522776 0-69.866443-31.341192-69.866443-69.866443 0-38.530197 31.356035-69.866443 69.866443-69.866443 38.517828 0 69.866443 31.336244 69.866443 69.866443C354.462824 504.1377 323.12658 535.478892 284.596383 535.478892zM284.596383 435.809992c-16.418935 0-29.790089 13.358785-29.790089 29.785141 0 16.438726 13.371154 29.795037 29.790089 29.795037s29.790089-13.356311 29.790089-29.795037C314.386472 449.168775 301.027687 435.809992 284.596383 435.809992zM605.78114 535.478892c-38.522776 0-69.87139-31.341192-69.87139-69.866443 0-38.530197 31.360983-69.866443 69.87139-69.866443 38.537619 0 69.898602 31.336244 69.898602 69.866443C675.677268 504.1377 644.318759 535.478892 605.78114 535.478892zM605.78114 435.809992c-16.411514 0-29.795037 13.358785-29.795037 29.785141 0 16.438726 13.383522 29.795037 29.795037 29.795037 16.438726 0 29.824723-13.356311 29.824723-29.795037C635.60339 449.168775 622.244605 435.809992 605.78114 435.809992zM873.661874 208.356897c0 116.068045 64.379445 156.901396 67.001725 158.50445 9.524318 5.635428 12.653738 17.92551 7.01831 27.449828-5.647797 9.541635-17.950248 12.668581-27.462197 7.033153-3.53513-2.102772-86.636664-52.915629-86.636664-192.987431 0-79.368496 27.108436-130.39163 48.883256-171.393203 15.614935-29.352218 27.929755-52.559395 27.929755-79.084003 0-19.006581-4.136275-32.729021-11.948691-39.734962-7.958372-7.122211-18.355959-6.065878-18.551393-6.065878-0.952432 0.143483-1.929602 0.207803-2.896878 0.207803l-73.757807 0c8.584256 13.437947 13.645751 29.327479 13.645751 46.431671L816.88704 862.096222c0 8.994914-6.001557 16.888966-14.677346 19.308391-8.648576 2.439216-17.873559-1.244346-22.529342-8.942964l-97.870412-161.999998c-30.030053 0.57146-118.272244 1.25919-382.427362 1.25919-56.089577 0-83.85111-0.039582-97.87536-0.138535L111.347793 885.182179c-4.264916 8.205757-13.62596 12.438513-22.53429 10.234313-8.982545-2.191831-15.298282-10.234313-15.298282-19.464243l0-917.209186c0-47.695808 38.792425-86.508024 86.500602-86.508024L466.223899-127.76496l264.167487 0 145.511795 0c1.316087-0.116271 3.181369-0.235016 5.504314-0.235016 9.798916 0 27.422616 2.179461 42.946017 15.577827 17.324365 14.976682 26.118898 38.626678 26.118898 70.329052 0 36.516484-15.837581 66.33626-32.602856 97.895151C897.143648 94.770122 873.661874 138.980277 873.661874 208.356897zM466.223899-87.700976 160.015824-87.700976c-25.596915 0-46.424249 20.834755-46.424249 46.429197L113.591574 793.874889l58.014232-111.689333c3.671192-7.109841 11.461342-11.226327 19.053585-10.768665 4.020005 0.103902 34.505246 0.227594 108.723187 0.227594 154.031732 0 375.982985-0.482401 391.536073-1.24682 7.589768-0.808949 15.236435 2.820188 19.308391 9.556479l66.583645 110.22234 0-831.460633c0-25.596915-20.819912-46.431671-46.416827-46.431671L466.223899-87.715819 466.223899-87.700976zM480.260517 355.305999l-70.133617 0c-11.058104 0-20.040651-8.962754-20.040651-20.038177 0-11.077895 8.982545-20.040651 20.040651-20.040651l15.204276 0-1.481836-25.505382c-0.658044-11.050683 7.787677-20.520577 18.830938-21.173673 0.390868-0.012369 0.789158-0.027212 1.175078-0.027212 10.541071 0 19.372711 8.23297 19.986226 18.877942l1.617897 27.840696 14.798564 0c11.063052 0 20.038177 8.96028 20.038177 20.038177S491.323571 355.305999 480.260517 355.305999z"  horiz-adv-x="1024" />

    
    <glyph glyph-name="dog" unicode="&#58985;" d="M562.988022 473.133666C562.988022 508.586858 534.167537 537.425512 498.714346 537.425512 463.279326 537.425512 434.440671 508.586858 434.440671 473.133666 434.440671 437.698646 463.279326 408.859991 498.714346 408.859991 534.167537 408.859991 562.988022 437.698646 562.988022 473.133666L562.988022 473.133666ZM498.714346 439.643027C480.23362 439.643027 465.205536 454.671111 465.205536 473.133666 465.205536 491.614392 480.23362 506.642476 498.714346 506.642476 517.195072 506.642476 532.241326 491.614392 532.241326 473.133666 532.241326 454.671111 517.195072 439.643027 498.714346 439.643027L498.714346 439.643027ZM886.173581 283.438189C877.869066 285.200854 869.691754 279.967374 867.874574 271.662859 862.804639 248.22123 835.855853 232.448102 800.820611 232.448102 775.907067 232.448102 734.111913 237.118257 734.111913 268.410105L734.111913 292.396889C762.114667 299.338518 783.012241 324.488296 783.012241 354.61715 783.012241 390.05217 754.173586 418.890827 718.738566 418.890827 683.285374 418.890827 654.46489 390.05217 654.46489 354.61715 654.46489 324.488296 675.362467 299.338518 703.365218 292.396889L703.365218 268.410105C703.365218 237.118257 661.551894 232.448102 636.63835 232.448102 601.62128 232.448102 574.672493 248.22123 569.584387 271.68103 567.785378 279.985545 559.517207 285.200854 551.30355 283.438189 542.999036 281.621009 537.711041 273.443696 539.528221 265.139181 546.342649 233.72013 574.418087 211.096231 612.106411 204.136429 612.070068 203.736649 611.870179 203.373215 611.870179 202.937091L611.870179 81.076964C611.870179 22.073112 659.861916-25.9368 718.86577-25.9368 777.869621-25.9368 825.879531 22.073112 825.879531 81.076964L825.861358 202.173875 825.879531 202.537311 819.083277 202.882575C860.024353 208.297773 890.752876 231.957464 897.948912 265.157352 899.747919 273.443696 894.478096 281.639179 886.173581 283.438189L886.173581 283.438189ZM685.211585 354.61715C685.211585 373.097877 700.25784 388.125959 718.738566 388.125959 737.219291 388.125959 752.247375 373.097877 752.247375 354.61715 752.247375 336.136424 737.219291 321.090169 718.738566 321.090169 700.25784 321.090169 685.211585 336.136424 685.211585 354.61715L685.211585 354.61715ZM718.86577 4.828068C676.816211 4.828068 642.616874 39.027405 642.616874 81.076964L642.598701 201.992156C677.561254 202.937091 703.619624 211.895791 718.738566 227.905151 733.893851 211.859448 760.043079 202.900747 795.132836 201.973986L795.132836 81.076964C795.132836 39.027405 760.915326 4.828068 718.86577 4.828068L718.86577 4.828068ZM1164.456611 167.374867C1196.67522 233.120459 1214.828855 306.934333 1214.828855 384.945894 1214.828855 530.701945 1151.645487 661.956896 1051.228091 752.797752 1205.325001 719.27077 1402.307371 511.494347 1402.307371 367.900741 1402.307371 231.866604 1330.710457 171.354492 1164.456611 167.374867L1164.456611 167.374867ZM718.738566-80.397701C462.134502-80.397701 253.394973 128.34183 253.394973 384.945894 253.394973 641.531787 462.134502 850.271316 718.738566 850.271316 975.324459 850.271316 1184.08216 641.531787 1184.08216 384.945894 1184.08216 128.34183 975.324459-80.397701 718.738566-80.397701L718.738566-80.397701ZM35.151589 367.900741C35.151589 511.51252 232.152131 719.288943 386.23087 752.797752 285.831644 661.956896 222.630105 530.701945 222.630105 384.945894 222.630105 306.934333 240.78374 233.120459 273.00235 167.374867 106.748503 171.354492 35.151589 231.866604 35.151589 367.900741L35.151589 367.900741ZM1433.072239 367.900741C1433.072239 540.787298 1184.318393 788.341804 1010.595934 788.341804 1009.632829 788.341804 1008.778752 787.887507 1007.85199 787.705789 926.387787 846.364378 826.57006 881.054354 718.738566 881.054354 610.907073 881.054354 511.089346 846.364378 429.606971 787.705789 428.680209 787.887507 427.826132 788.341804 426.863027 788.341804 253.140568 788.341804 4.404894 540.787298 4.404894 367.900741 4.404894 160.742158 166.969866 136.337423 289.756756 136.228394 375.763909-11.544729 535.784828-111.180737 718.738566-111.180737 901.692303-111.180737 1061.695051-11.544729 1147.702205 136.228394 1270.489094 136.337423 1433.072239 160.742158 1433.072239 367.900741L1433.072239 367.900741ZM938.744615 439.643027C920.263889 439.643027 905.235805 454.671111 905.235805 473.133666 905.235805 491.614392 920.263889 506.642476 938.744615 506.642476 957.22534 506.642476 972.271595 491.614392 972.271595 473.133666 972.271595 454.671111 957.22534 439.643027 938.744615 439.643027L938.744615 439.643027ZM938.744615 537.425512C903.309594 537.425512 874.470939 508.586858 874.470939 473.133666 874.470939 437.698646 903.309594 408.859991 938.744615 408.859991 974.197808 408.859991 1003.01829 437.698646 1003.01829 473.133666 1003.01829 508.586858 974.197808 537.425512 938.744615 537.425512L938.744615 537.425512Z"  horiz-adv-x="1442" />

    
    <glyph glyph-name="history3" unicode="&#58889;" d="M876.8 186.88l-138.24 0 0 117.76c0 15.36-10.24 25.6-25.6 25.6-15.36 0-25.6-10.24-25.6-25.6l0-143.36c0-15.36 10.24-25.6 25.6-25.6l163.84 0c15.36 0 25.6 10.24 25.6 25.6S889.6 186.88 876.8 186.88zM705.28 432.64C705.28 432.64 705.28 432.64 705.28 432.64c-153.6 0-279.04-125.44-279.04-279.04 0-153.6 125.44-279.04 279.04-279.04 0 0 0 0 0 0 153.6 0 279.04 125.44 279.04 279.04C984.32 307.2 858.88 430.08 705.28 432.64zM705.28-74.24c-125.44 0-227.84 102.4-227.84 227.84 0 125.44 102.4 227.84 227.84 227.84s227.84-102.4 227.84-227.84C930.56 25.6 830.72-74.24 705.28-74.24zM730.88 547.84c0 15.36-10.24 25.6-25.6 25.6L231.68 573.44c-15.36 0-25.6-10.24-25.6-25.6 0-15.36 10.24-25.6 25.6-25.6L705.28 522.24C718.08 522.24 730.88 532.48 730.88 547.84zM423.68 340.48c0 15.36-10.24 25.6-25.6 25.6L231.68 366.08c-15.36 0-25.6-10.24-25.6-25.6s10.24-25.6 25.6-25.6L398.08 314.88C413.44 314.88 423.68 327.68 423.68 340.48zM231.68 186.88c-15.36 0-25.6-10.24-25.6-25.6s10.24-25.6 25.6-25.6l128 0c15.36 0 25.6 10.24 25.6 25.6s-10.24 25.6-25.6 25.6L231.68 186.88zM482.56-76.8 90.88-76.8 90.88 844.8l174.08 0 0-38.4c0-33.28 25.6-64 58.88-64 12.8 0 343.04-2.56 373.76 0C730.88 742.4 756.48 770.56 753.92 803.84L753.92 842.24l174.08 0 0-437.76c0-15.36 10.24-25.6 25.6-25.6 15.36 0 25.6 10.24 25.6 25.6L979.2 867.84c0 15.36-10.24 25.6-25.6 25.6l-225.28 0c-15.36 0-25.6-10.24-25.6-25.6l0-64c0-7.68-5.12-12.8-10.24-12.8 0 0 0 0-2.56 0-7.68 0-353.28 0-363.52 0-7.68 0-12.8 5.12-12.8 12.8 0 0 0 2.56 0 2.56L313.6 870.4c0 15.36-10.24 25.6-25.6 25.6L65.28 896C49.92 896 39.68 885.76 39.68 870.4l0-972.8c0-15.36 10.24-25.6 25.6-25.6l417.28 0c15.36 0 25.6 10.24 25.6 25.6C508.16-87.04 495.36-76.8 482.56-76.8zM395.52 844.8l230.4 0c15.36 0 25.6 10.24 25.6 25.6 0 15.36-10.24 25.6-25.6 25.6l-230.4 0c-15.36 0-25.6-10.24-25.6-25.6C369.92 855.04 382.72 844.8 395.52 844.8z"  horiz-adv-x="1024" />

    
    <glyph glyph-name="done1477" unicode="&#59529;" d="M967.68 742.4C967.68 770.6624 943.59552 793.6 913.92 793.6L161.28 793.6C131.60448 793.6 107.52 770.6624 107.52 742.4L107.52 25.6C107.52-2.6624 131.60448-25.6 161.28-25.6L913.92-25.6C943.59552-25.6 967.68-2.6624 967.68 25.6L967.68 742.4ZM1075.2 793.6 1075.2-25.6C1075.2-82.176 1027.0848-128 967.68-128L107.52-128C48.1152-128 0-82.176 0-25.6L0 793.6C0 850.176 48.1152 896 107.52 896L967.68 896C1027.0848 896 1075.2 850.176 1075.2 793.6L1075.2 793.6ZM753.76896 536.832C774.78912 516.864 774.78912 484.4032 753.76896 464.4352L544.75008 265.3696C513.19296 235.3664 462.12096 235.3664 430.56384 265.3696L335.56992 355.84C314.60352 375.808 314.60352 408.2176 335.56992 428.2368 356.59008 448.2048 390.62016 448.2048 411.58656 428.2368L449.54112 392.0896C470.56128 372.0704 504.69888 372.0704 525.7728 392.0896L677.75232 536.832C698.71872 556.8512 732.80256 556.8512 753.76896 536.832L753.76896 536.832Z"  horiz-adv-x="1076" />

    
    <glyph glyph-name="jian2" unicode="&#58973;" d="M107.35096 428.961004l809.29808 0c24.822338 0 44.961004-20.120246 44.961004-44.961004 0-24.822338-20.138666-44.961004-44.961004-44.961004L107.35096 339.038996c-24.840758 0-44.961004 20.138666-44.961004 44.961004C62.389956 408.840758 82.510202 428.961004 107.35096 428.961004z"  horiz-adv-x="1024" />

    
    <glyph glyph-name="sun" unicode="&#58910;" d="M514.67264 632.59648c-144.61952 0-261.85728-117.23776-261.85728-261.85728s117.23776-261.85728 261.85728-261.85728c144.61952 0 261.85728 117.23776 261.85728 261.85728S659.29216 632.59648 514.67264 632.59648zM514.43712 167.09632c-113.23392 0-205.03552 91.79136-205.03552 205.02528 0 113.23392 91.8016 205.03552 205.03552 205.03552 113.2544 0 205.04576-91.8016 205.04576-205.03552C719.48288 258.88768 627.69152 167.09632 514.43712 167.09632zM514.67264 103.76192c-147.21024 0-266.97728 119.76704-266.97728 266.97728s119.76704 266.97728 266.97728 266.97728c147.2 0 266.97728-119.76704 266.97728-266.97728S661.88288 103.76192 514.67264 103.76192zM514.67264 627.47648c-141.568 0-256.73728-115.16928-256.73728-256.73728 0-141.568 115.16928-256.73728 256.73728-256.73728 141.568 0 256.73728 115.16928 256.73728 256.73728C771.40992 512.3072 656.24064 627.47648 514.67264 627.47648zM514.43712 161.97632c-115.87584 0-210.15552 94.27968-210.15552 210.14528 0 115.87584 94.27968 210.15552 210.15552 210.15552 115.88608 0 210.16576-94.27968 210.16576-210.15552C724.60288 256.256 630.3232 161.97632 514.43712 161.97632zM514.43712 572.0576c-110.2336 0-199.91552-89.68192-199.91552-199.91552 0-110.24384 89.68192-199.91552 199.91552-199.91552 110.24384 0 199.92576 89.69216 199.92576 199.91552C714.36288 482.37568 624.68096 572.0576 514.43712 572.0576zM486.4 875.42784l51.2 0 0-159.34464-51.2 0 0 159.34464ZM483.79904 41.59488l51.2 0 0-159.36512-51.2 0 0 159.36512ZM22.60992 409.6l165.7856 0 0-51.2-165.7856 0 0 51.2ZM838.31808 409.6l175.44192 0 0-51.2-175.44192 0 0 51.2ZM771.616024 603.621887l-37.78048 34.55488 112.496867 122.998131 37.78048-34.55488-112.496867-122.998131ZM252.527342 603.454081l-114.813296 123.025063 37.43232 34.93376 114.813296-123.025063-37.43232-34.93376ZM836.264122-30.596063l-112.47321 121.841832 37.614236 34.722014 112.47321-121.841832-37.614236-34.722014ZM175.070447-41.104548l-37.163766 35.203198 125.369581 132.351775 37.163766-35.203198-125.369581-132.351775Z"  horiz-adv-x="1024" />

    
    <glyph glyph-name="new6" unicode="&#59254;" d="M846.769231 718.769231c-185.107692 183.138462-484.430769 183.138462-669.538462 0-183.138462-185.107692-183.138462-484.430769 0-669.538462 185.107692-185.107692 484.430769-185.107692 667.569231 0 185.107692 185.107692 185.107692 484.430769 1.969231 669.538462zm-19.692308-374.153846c0-11.815385-7.876923-19.692308-19.692308-19.692308l-216.615385 0c-9.846154 0-19.692308-9.846154-19.692308-19.692308l0-216.615385c0-9.846154-9.846154-19.692308-19.692308-19.692308l-78.769231 0c-11.815385 0-19.692308 7.876923-19.692308 19.692308l0 216.615385c0 11.815385-7.876923 19.692308-19.692308 19.692308l-216.615385 0c-11.815385 0-19.692308 7.876923-19.692308 19.692308l0 78.769231c0 9.846154 9.846154 19.692308 19.692308 19.692308l216.615385 0c11.815385 0 19.692308 7.876923 19.692308 19.692308l0 216.615385c0 9.846154 9.846154 19.692308 19.692308 19.692308l78.769231 0c9.846154 0 19.692308-7.876923 19.692308-19.692308l0-216.615385c0-11.815385 7.876923-19.692308 19.692308-19.692308l216.615385 0c9.846154 0 19.692308-9.846154 19.692308-19.692308l0-78.769231z"  horiz-adv-x="1024" />

    
    <glyph glyph-name="send2" unicode="&#58885;" d="M952.53383 644.376169 617.214808 780.59869c-15.71696 5.239328-31.434943 5.239328-47.15395 0l-340.556303-136.222521c-15.236006-3.808746-28.655643-20.842701-34.326806-36.738739l380.955408-199.455681-0.831948-408.242891L192.864054 199.676971c0-20.956288 10.443863-47.797609 31.401174-58.276265L564.822554-41.975764c5.238304-10.478655 15.71696-10.478655 26.196639-10.478655s20.957311 0 26.196639 5.238304l340.557326 183.375447c20.957311 10.478655 31.43699 31.43699 31.43699 52.394301L989.210148 591.982892C989.209124 612.940203 973.489094 639.136841 952.53383 644.376169zM585.779865 743.923396l5.238304 0 5.240351 0 324.837296-130.983193-83.829244-47.15395L512.428254 717.725734 585.779865 743.923396zM260.941546 612.940203l104.786555 41.914622 324.839343-162.420183-99.54825-52.392254L260.941546 612.940203zM952.53383 188.554656c0-5.240351-5.240351-15.71696-10.478655-15.71696L611.976504-5.30047 611.976504 408.605398l104.786555 52.393277 0-130.983193c0-15.719007 15.71696-26.196639 31.434943-15.719007l104.786555 52.394301c5.240351 5.238304 10.478655 10.478655 10.478655 15.717983l0 157.179832 89.069595 47.15395L952.532807 188.554656zM155.705759 498.573455c0 10.412141 8.438183 18.8493 18.848277 18.8493l121.926934 0c10.410094 0 18.848277-8.43716 18.848277-18.8493 0-10.410094-8.438183-18.848277-18.848277-18.848277l-121.926934 0C164.143942 479.725178 155.705759 488.163361 155.705759 498.573455zM103.843578 377.440607c0 10.411117 8.439206 18.8493 18.8493 18.8493l173.788092 0c10.410094 0 18.848277-8.438183 18.848277-18.8493 0-10.410094-8.438183-18.8493-18.848277-18.8493l-173.788092 0C112.282784 358.591307 103.843578 367.030513 103.843578 377.440607zM296.48097 237.458459 49.568441 237.458459c-10.410094 0-18.8493 8.438183-18.8493 18.8493 0 10.410094 8.439206 18.848277 18.8493 18.848277l246.911506 0c10.410094 0 18.848277-8.438183 18.848277-18.848277C315.328223 245.896642 306.890041 237.458459 296.48097 237.458459z"  horiz-adv-x="1024" />

    
    <glyph glyph-name="receive" unicode="&#58900;" d="M296.448 290.56l151.04-134.08c0.64-1.088 1.664-2.56 3.264-4.032 7.168-6.272 16.576-9.664 27.328-9.664l1.024 0c10.112 0 19.648 3.456 26.752 9.792 1.664 1.472 2.688 3.136 3.52 4.48l239.744 270.208c7.36 6.656 11.52 15.552 11.52 25.024 0 9.472-4.096 18.368-11.52 25.024-14.592 12.672-38.464 13.44-54.336-0.768l-217.28-248.896L349.952 340.544c-14.464 12.8-39.168 12.8-53.504 0C288.96 334.016 284.8 325.056 284.8 315.52 284.8 305.984 288.96 297.152 296.448 290.56L296.448 290.56zM858.816 814.144c-12.16 18.304-32.704 29.248-54.656 29.248L218.176 843.392c-21.888 0-42.432-10.944-54.592-29.248L52.608 646.656 52.608-9.6c0-36.16 29.568-65.728 65.6-65.728L905.6-75.328c36.16 0 65.664 29.568 65.664 65.728L971.264 646.656 858.816 814.144 858.816 814.144zM905.6-9.6 118.272-9.6 118.272 581.056 905.6 581.056 905.6-9.6 905.6-9.6zM118.272 646.656l96 130.624 597.376 0.512 94.016-131.136L118.272 646.656 118.272 646.656z"  horiz-adv-x="1024" />

    
    <glyph glyph-name="history4" unicode="&#59002;" d="M618.308989 601.55413l-67.416705-51.284368s-25.299182-15.037804-2.513638-22.538788l204.890716-25.014542s26.994737-13.370918 30.385845 14.970227l59.762138 154.269826s0 45.006927-17.702977 32.482762l-69.555602-33.17798L644.926936 817.67994s7.530677 17.51663-22.846977 17.51663l-120.776489-0.348121s-50.596317 2.514662-25.300206-30.007007l142.305725-203.287312zM358.869759 280.968468s25.358568-14.751116 21.092037 8.60166L325.598605 479.896076s7.532724 59.009583-24.982802 50.061849l-192.088054-54.36012s-40.049274-21.501592-20.463372-30.883453l62.711952-44.602493L71.366855 232.191595s-19.144608-1.817396-4.646392-28.123059l58.004128-104.830499s21.970531-45.196346 38.795015-7.658662L278.581791 313.674436l80.287968-32.705968zM751.137633 343.745948L805.626762 196.034108l155.425792 0.381909-69.301678 210.66543s-12.052154 29.469467-41.683396 22.506023L778.884925 391.702689s-41.684419-10.829635-27.747292-47.956741zM409.528533 160.81962l-150.470188 0.941975-77.459996-135.084263 225.102213-0.067576s29.379366-1.251188 36.347929 28.061625l-2.452206 60.200361s8.664118 41.683395-31.067752 45.947878zM936.693298 160.887197l-255.108196 0.309213-0.499656 88.324444s-0.752556 29.125442-19.96474 15.001967L524.273313 115.307918s-24.665397-19.644264-4.955605-33.205625l125.358376-126.804102s37.28376-34.272513 37.037004-12.80471l1.128322 86.689299 164.718575 0.19249s20.086582-6.278465 30.382773 12.613243l69.172669 81.230966c-0.001024 0.001024 31.011439 39.48409-10.422129 37.667718zM299.232534 668.403603s-15.188315-25.013518 7.532724-45.00488l51.348873-47.55333s32.891292-27.555826 55.615403 4.993489l97.676613 103.292623L421.89502 809.931176 299.232534 668.403603z"  horiz-adv-x="1024" />

    
    <glyph glyph-name="square3" unicode="&#59144;" d="M950.857143 658.285714v-548.571428q0-68-48.285714-116.285715T786.285714-54.857143H237.714286q-68 0-116.285715 48.285714T73.142857 109.714286V658.285714q0 68 48.285714 116.285715T237.714286 822.857143h548.571428q68 0 116.285715-48.285714T950.857143 658.285714z"  horiz-adv-x="1024" />

    
    <glyph glyph-name="done3" unicode="&#58907;" d="M511.44704 890.81856C235.04896 890.81856 10.99776 666.76736 10.99776 390.3488c0-276.3776 224.0512-500.44928 500.44928-500.44928s500.44928 224.0512 500.44928 500.44928S787.8656 890.81856 511.44704 890.81856z m0-929.91488c-236.83072 0-429.4656 192.65536-429.4656 429.4656 0 236.81024 192.65536 429.4656 429.4656 429.4656 236.78976 0 429.4656-192.67584 429.4656-429.4656 0-236.83072-192.65536-429.4656-429.4656-429.4656z m-81.63328 319.42656l-141.96736 113.5616-63.8976-42.5984L465.3056 102.83008s141.96736 312.34048 333.6192 461.4144l-21.2992 28.42624S479.5392 379.6992 429.83424 280.33024z"  horiz-adv-x="1024" />

    
    <glyph glyph-name="send_click" unicode="&#59008;" d="M6.976 470.912l221.44-152.192 0-346.048 276.8 179.968 262.912-152.384 249.216 816.704L6.976 470.912zM311.488 69.568l69.184 152.256 69.248-41.536L311.488 69.568zM353.024 277.12l-83.072-193.792L273.92 321.152l577.344 357.376L353.024 277.12z"  horiz-adv-x="1024" />

    
    <glyph glyph-name="new7" unicode="&#59143;" d="M846.769231 718.769231C661.661538 901.907692 362.338462 901.907692 177.230769 718.769231-5.907692 533.661538-5.907692 234.338462 177.230769 49.230769c185.107692-185.107692 484.430769-185.107692 667.569231 0 185.107692 185.107692 185.107692 484.430769 1.969231 669.538462z m-19.692308-374.153846c0-11.815385-7.876923-19.692308-19.692308-19.692308H590.769231c-9.846154 0-19.692308-9.846154-19.692308-19.692308v-216.615384c0-9.846154-9.846154-19.692308-19.692308-19.692308h-78.76923c-11.815385 0-19.692308 7.876923-19.692308 19.692308V305.230769c0 11.815385-7.876923 19.692308-19.692308 19.692308H216.615385c-11.815385 0-19.692308 7.876923-19.692308 19.692308v78.76923c0 9.846154 9.846154 19.692308 19.692308 19.692308h216.615384c11.815385 0 19.692308 7.876923 19.692308 19.692308V679.384615c0 9.846154 9.846154 19.692308 19.692308 19.692308h78.76923c9.846154 0 19.692308-7.876923 19.692308-19.692308v-216.615384c0-11.815385 7.876923-19.692308 19.692308-19.692308h216.615384c9.846154 0 19.692308-9.846154 19.692308-19.692308v-78.76923z"  horiz-adv-x="1024" />

    
    <glyph glyph-name="send3" unicode="&#59154;" d="M1008.00076 889.714286q18.857143-13.714286 15.428571-36.571429l-146.285714-877.714286q-2.857143-16.571429-18.285714-25.714285-8-4.571429-17.714286-4.571429-6.285714 0-13.714286 2.857143l-258.857142 105.714286-138.285715-168.571429q-10.285714-13.142857-28-13.142857-7.428571 0-12.571428 2.285714-10.857143 4-17.428572 13.428572T365.715046-91.428571v199.428571l493.714285 605.142857-610.857142-528.571428-225.714286 92.571428q-21.142857 8-22.857143 31.428572-1.142857 22.857143 18.285714 33.714285L969.143617 890.857143q8.571429 5.142857 18.285714 5.142857 11.428571 0 20.571429-6.285714z"  horiz-adv-x="1024" />

    
    <glyph glyph-name="tree" unicode="&#59199;" d="M932.571429 54.857143q0-14.857143-10.857143-25.714286t-25.714286-10.857143h-264q0.571429-9.714286 3.428571-50t2.857143-62q0-14.285714-10.285714-24.285714t-24.571429-10H420.571429q-14.285714 0-24.571429 10t-10.285714 24.285714q0 21.714286 2.857143 62t3.428571 50H128q-14.857143 0-25.714286 10.857143t-10.857143 25.714286 10.857143 25.714286l229.714286 230.285714H201.142857q-14.857143 0-25.714286 10.857143t-10.857142 25.714285 10.857142 25.714286l229.714286 230.285714H292.571429q-14.857143 0-25.714286 10.857143t-10.857143 25.714286 10.857143 25.714286L486.285714 885.142857q10.857143 10.857143 25.714286 10.857143t25.714286-10.857143l219.428571-219.428571q10.857143-10.857143 10.857143-25.714286t-10.857143-25.714286-25.714286-10.857143h-112.571428l229.714286-230.285714q10.857143-10.857143 10.857142-25.714286t-10.857142-25.714285-25.714286-10.857143h-130.857143l229.714286-230.285714q10.857143-10.857143 10.857143-25.714286z"  horiz-adv-x="1024" />

    
    <glyph glyph-name="cloud" unicode="&#58908;" d="M819.5072 76.8H307.2c-169.3696 0-307.2 137.8304-307.2 307.2s137.8304 307.2 307.2 307.2c82.0224 0 160.6144-32.9216 218.112-90.88A154.3168 154.3168 0 0 0 665.6 691.2a153.8048 153.8048 0 0 0 144.4864-205.6704A204.7488 204.7488 0 0 0 1024 281.2416a204.7488 204.7488 0 0 0-204.4928-204.4928zM307.2 640c-141.1584 0-256-114.8416-256-256s114.8416-256 256-256h512.3072C904.0384 128 972.8 196.7616 972.8 281.2928a153.4464 153.4464 0 0 1-205.824 144.0768 25.6 25.6 0 0 0-27.3408 41.6768c18.2784 19.2512 28.3648 44.288 28.3648 70.6048 0 56.4736-45.9264 102.4-102.4 102.4-32.8704 0-62.9248-15.2064-82.432-41.6768-11.776-15.9744-18.688-34.7136-19.8656-54.1184a25.6 25.6 0 0 0-46.4896-13.1584A256.4096 256.4096 0 0 1 307.2 640.0512z"  horiz-adv-x="1024" />

    
    <glyph glyph-name="receive1" unicode="&#59493;" d="M921.074435 348.931938l-73.715224 204.108373c-5.302445 14.630253-19.203228 24.412702-34.792825 24.412702h-78.610024c-20.423097 0-36.998602-16.581634-36.998601-37.002688 0-20.438422 16.580613-36.981233 36.998601-36.981234h52.626l47.291884-130.843704H190.129841l47.286775 130.843704h52.624979c20.438422 0 37.002688 16.542811 37.002688 36.981234 0 20.421054-16.563244 37.002688-37.002688 37.002688h-78.610024c-15.586532 0-29.489359-9.782449-34.789761-24.412702l-73.728505-204.132893a36.904608 36.904608 0 0 1-2.468344-13.281654v-426.621032c0-20.441487 16.581634-37.005753 36.998602-37.005754h749.107766c20.416967 0 36.999623 16.564266 36.999623 37.005754V335.625764a36.761575 36.761575 0 0 1-2.476517 13.306174zM174.450337-54.020165V298.620011h675.121802v-352.640176H174.450337z m457.779793 139.351114h-240.459239c-20.424119 0-36.984298 16.564266-36.984298 36.987364 0 20.435357 16.560179 36.999623 36.984298 36.999623h240.458218c20.423097 0 36.981233-16.564266 36.981233-36.999623 0.001022-20.423097-16.557114-36.987363-36.980212-36.987364zM608.667454 895.5803c-0.600739 0-4.629167 0.19003-5.229907 0.15325-10.172725-0.973647-23.820136-9.943872-22.846488-20.095143l18.494193-207.763893c0.914391-9.460624 8.874188-16.729776 18.414502-16.729776h38.076459l-143.554247-137.727688-140.274701 137.727688h30.974861c9.535206 0 17.498068 7.269151 18.418589 16.729776L439.627756 872.679663c1.84615 9.674152-10.48842 21.568385-22.762712 23.053887-19.073477 2.308964-28.915183-11.534606-30.352666-19.512794l-16.878939-178.235711h-63.405595a18.498279 18.498279 0 0 1-17.123117-11.483522c-2.831036-6.932002-7.181288-19.687498 4.157158-30.036972l205.76245-202.314328c7.196613-7.082187 18.749609-7.082187 25.95133 0l205.75632 202.314328c8.104874 6.658195 6.367021 23.095775 3.535985 30.024712a18.499301 18.499301 0 0 1-17.123117 11.486587H648.407185L632.140224 879.178479c-0.710058 7.635929-11.579559 17.017886-23.47277 16.401821z"  horiz-adv-x="1024" />

    
    <glyph glyph-name="tree1" unicode="&#59431;" d="M932.571429 54.857143q0-14.857143-10.857143-25.714286t-25.714286-10.857143h-264q0.571429-9.714286 3.428571-50t2.857143-62q0-14.285714-10.285714-24.285714t-24.571429-10H420.571429q-14.285714 0-24.571429 10t-10.285714 24.285714q0 21.714286 2.857143 62t3.428571 50H128q-14.857143 0-25.714286 10.857143t-10.857143 25.714286 10.857143 25.714286l229.714286 230.285714H201.142857q-14.857143 0-25.714286 10.857143t-10.857142 25.714285 10.857142 25.714286l229.714286 230.285714H292.571429q-14.857143 0-25.714286 10.857143t-10.857143 25.714286 10.857143 25.714286L486.285714 885.142857q10.857143 10.857143 25.714286 10.857143t25.714286-10.857143l219.428571-219.428571q10.857143-10.857143 10.857143-25.714286t-10.857143-25.714286-25.714286-10.857143h-112.571428l229.714286-230.285714q10.857143-10.857143 10.857142-25.714286t-10.857142-25.714285-25.714286-10.857143h-130.857143l229.714286-230.285714q10.857143-10.857143 10.857143-25.714286z"  horiz-adv-x="1024" />

    
    <glyph glyph-name="yangguangqingguan" unicode="&#58895;" d="M120.785 414.236h-82.235c-0.195 0.005-0.424 0.007-0.655 0.007-16.51 0-29.894-13.385-29.894-29.894 0-16.51 13.385-29.894 29.894-29.894 0.23 0 0.46 0.003 0.689 0.008l82.215-0.001c0.195-0.005 0.424-0.007 0.655-0.007 16.51 0 29.894 13.385 29.894 29.894 0 16.51-13.385 29.894-29.894 29.894-0.23 0-0.46-0.003-0.689-0.008zM512.385 745.975c16.485 0.032 29.837 13.404 29.837 29.894 0 0.010 0 0.021 0 0.031v82.219c-0.367 16.234-13.614 29.254-29.901 29.254s-29.535-13.019-29.901-29.22l-0.001-82.255c0 0 0 0 0 0 0-16.526 13.397-29.923 29.923-29.923 0.015 0 0.031 0 0.045 0zM213.727 127.992l-58.168-58.196c-5.568-5.437-9.021-13.018-9.021-21.406 0-16.518 13.39-29.909 29.909-29.909 8.388 0 15.97 3.453 21.4 9.015l58.159 58.159c5.406 5.409 8.749 12.881 8.749 21.133 0 16.511-13.386 29.896-29.896 29.896-8.259 0-15.736-3.349-21.147-8.764zM214.344 639.415c5.409-5.406 12.881-8.749 21.133-8.749 16.511 0 29.896 13.386 29.896 29.896 0 8.259-3.349 15.736-8.764 21.147l-58.124 58.168c-5.437 5.568-13.018 9.021-21.406 9.021-16.518 0-29.909-13.39-29.909-29.909 0-8.388 3.453-15.97 9.015-21.4l58.159-58.159zM809.738 639.415l58.124 58.153c5.414 5.411 8.764 12.888 8.764 21.147 0 16.511-13.386 29.896-29.896 29.896-8.252 0-15.723-3.343-21.133-8.749l-58.153-58.168c-5.259-5.386-8.503-12.757-8.503-20.888 0-16.518 13.39-29.909 29.909-29.909 8.13 0 15.503 3.245 20.894 8.508zM986.092 414.236h-82.221c-0.195 0.005-0.424 0.007-0.655 0.007-16.51 0-29.894-13.385-29.894-29.894 0-16.51 13.385-29.894 29.894-29.894 0.23 0 0.46 0.003 0.689 0.008l82.186-0.001c0.195-0.005 0.424-0.007 0.655-0.007 16.51 0 29.894 13.385 29.894 29.894 0 16.51-13.385 29.894-29.894 29.894-0.23 0-0.46-0.003-0.689-0.008zM810.327 127.992c-5.355 5.118-12.629 8.267-20.638 8.267-16.51 0-29.894-13.385-29.894-29.894 0-8.009 3.15-15.282 8.278-20.649l58.114-58.142c5.487-5.975 13.335-9.707 22.055-9.707 16.518 0 29.909 13.39 29.909 29.909 0 8.702-3.716 16.537-9.649 22.002l-58.174 58.215zM511.725 670.758c-158.285 0-287.034-128.763-287.034-287.034s128.763-287.034 287.034-287.034 287.034 128.763 287.034 287.034-128.763 287.034-287.034 287.034zM511.725 152.361c-127.558 0-231.378 103.792-231.378 231.349s103.805 231.349 231.378 231.349 231.349-103.777 231.349-231.349-103.792-231.349-231.349-231.349zM512.385 22.694c0 0 0 0 0 0-16.518 0-29.909-13.39-29.909-29.909v-82.221c-0.005-0.195-0.007-0.425-0.007-0.656 0-16.518 13.39-29.909 29.909-29.909 16.518 0 29.909 13.39 29.909 29.909 0 0.23-0.003 0.46-0.008 0.689l0.001 82.201c0 0.004 0 0.009 0 0.015 0 16.502-13.378 29.881-29.881 29.881-0.005 0-0.010 0-0.015 0z"  horiz-adv-x="1025" />

    
    <glyph glyph-name="WIND" unicode="&#58896;" d="M716.8 621.226667c0 76.8-61.44 138.24-136.533333 138.24s-136.533333-61.44-136.533334-138.24v-29.013334h34.133334v29.013334c0 58.026667 46.08 104.106667 102.4 104.106666s102.4-46.08 102.4-104.106666c0-56.32-46.08-100.693333-104.106667-100.693334H204.8v-34.133333h373.76c76.8 0 138.24 59.733333 138.24 134.826667zM807.253333 640H768v-34.133333h37.546667c54.613333-1.706667 98.986667-47.786667 98.986666-102.4 0-56.32-46.08-102.4-100.693333-102.4H85.333333v-34.133334h718.506667c75.093333 0 134.826667 61.44 134.826667 136.533334 0 73.386667-59.733333 134.826667-131.413334 136.533333zM715.093333 281.6H221.866667v-34.133333h493.226666c58.026667 0 104.106667-44.373333 104.106667-100.693334 0-58.026667-46.08-104.106667-102.4-104.106666s-102.4 46.08-102.4 104.106666v29.013334h-34.133333v-29.013334c0-76.8 61.44-138.24 136.533333-138.24s136.533333 61.44 136.533333 138.24c0 75.093333-61.44 134.826667-138.24 134.826667zM256 657.066667h51.2v-34.133334h-51.2zM204.8 742.4h51.2v-34.133333h-51.2zM128 614.4h68.266667v-34.133333h-68.266667z"  horiz-adv-x="1024" />

    
    <glyph glyph-name="rain" unicode="&#59041;" d="M1024 341.333A213.333 213.333 0 0 0 810.667 128H256a256 256 0 1 0 0 512h13.099a298.795 298.795 0 0 0 286.08 212.779 298.325 298.325 0 0 0 298.538-298.283h-0.384v-4.437C950.656 530.304 1024 444.5 1024 341.333z m-213.333 128A42.667 42.667 0 0 0 768 512v42.667c0 0.426 0.256 0.81 0.256 1.237a212.992 212.992 0 0 1-213.12 211.627A213.333 213.333 0 0 1 341.76 554.368h-85.29v0.299H256a170.667 170.667 0 0 1 0-341.334h554.667a128 128 0 1 1 0 256zM256 85.333a42.667 42.667 0 0 0 42.667-42.666v-85.334a42.667 42.667 0 0 0-85.334 0v85.334A42.667 42.667 0 0 0 256 85.333z m256 0a42.667 42.667 0 0 0 42.667-42.666v-85.334a42.667 42.667 0 0 0-85.334 0v85.334A42.667 42.667 0 0 0 512 85.333z m256 0a42.667 42.667 0 0 0 42.667-42.666v-85.334a42.667 42.667 0 0 0-85.334 0v85.334A42.667 42.667 0 0 0 768 85.333z"  horiz-adv-x="1024" />

    
    <glyph glyph-name="Cat" unicode="&#58930;" d="M0 896M512.887467-121.787733h-6.587734C212.138667-121.787733 6.690133 29.934933 6.690133 247.227733 6.690133 433.664 26.624 674.474667 182.272 882.961067a17.055289 17.055289 0 0 0 23.586133 3.6864c13.687467-9.8304 27.9552-19.626667 42.325334-29.525334 84.753067-58.368 172.168533-118.5792 184.558933-196.744533 29.559467 3.345067 57.582933 5.0176 83.490133 5.0176 28.910933 0 60.8256-2.013867 90.180267-5.597867C618.496 738.9184 703.419733 797.5936 785.749333 854.493867c13.5168 9.352533 26.999467 18.670933 40.1408 28.0576a17.021156 17.021156 0 0 0 23.586134-3.6864c154.897067-207.428267 167.867733-434.824533 167.867733-631.637334 0-213.845333-212.1728-369.015467-504.456533-369.015466zM199.816533 849.066667C59.1872 651.707733 40.823467 424.379733 40.823467 247.227733c0-197.154133 191.419733-334.882133 465.476266-334.882133h6.587734c272.520533 0 470.3232 140.834133 470.3232 334.882133 0 187.016533-11.946667 402.295467-151.313067 597.8112-8.840533-6.212267-17.8176-12.3904-26.794667-18.602666-81.7152-56.4224-166.0928-114.7904-166.0928-184.9344 0-4.983467-2.1504-10.171733-5.9392-13.448534-3.720533-3.242667-8.772267-5.188267-13.653333-4.437333a720.839111 720.839111 0 0 1-103.150933 7.68c-29.149867 0-62.600533-2.389333-96.836267-6.929067a16.9984 16.9984 0 0 0-19.319467 16.896c0 69.802667-87.074133 129.7408-171.246933 187.6992a2676.736 2676.736 0 0 0-29.047467 20.104534zM325.3248 331.195733c-34.0992 0-61.815467 27.272533-61.815467 60.791467 0 33.553067 27.7504 60.859733 61.815467 60.859733s61.815467-27.306667 61.815467-60.859733c0-33.518933-27.716267-60.791467-61.815467-60.791467z m0 87.552c-15.2576 0-27.682133-11.9808-27.682133-26.7264 0-14.711467 12.424533-26.658133 27.682133-26.658133s27.682133 11.9808 27.682133 26.658133c0 14.7456-12.424533 26.7264-27.682133 26.7264zM690.210133 331.195733c-34.0992 0-61.883733 27.272533-61.883733 60.791467 0 33.553067 27.7504 60.859733 61.883733 60.859733s61.815467-27.306667 61.815467-60.859733c-0.034133-33.518933-27.716267-60.791467-61.815467-60.791467z m0 87.552c-15.2576 0-27.7504-11.9808-27.7504-26.7264 0-14.711467 12.424533-26.658133 27.7504-26.658133 15.2576 0 27.682133 11.9808 27.682134 26.658133-0.034133 14.7456-12.424533 26.7264-27.682134 26.7264zM485.444267 134.212267h-0.3072a17.214578 17.214578 0 0 0-13.175467 6.519466l-93.115733 119.466667a17.032533 17.032533 0 0 0 13.448533 27.511467h192.989867a17.066667 17.066667 0 0 0 13.141333-27.989334l-99.874133-119.466666a17.1008 17.1008 0 0 0-13.1072-6.0416z m-58.197334 119.466666l58.641067-75.229866 62.907733 75.229866H427.246933zM485.444267 31.812267c-9.4208 0-17.066667 7.68-17.066667 17.066666v102.4c0 9.386667 7.645867 17.066667 17.066667 17.066667s17.066667-7.68 17.066666-17.066667v-102.4a17.066667 17.066667 0 0 0-17.066666-17.066666zM600.6784 202.5472a17.066667 17.066667 0 0 0-3.140267 33.826133l225.143467 42.496a17.066667 17.066667 0 0 0 6.3488-33.518933l-225.1776-42.461867a14.791111 14.791111 0 0 0-3.1744-0.341333zM600.6784 115.063467a17.1008 17.1008 0 0 0-16.759467 13.9264 16.952889 16.952889 0 0 0 13.6192 19.8656l225.143467 42.3936a17.066667 17.066667 0 0 0 6.3488-33.518934L603.818667 115.370667a14.199467 14.199467 0 0 0-3.140267-0.3072zM378.333867 202.5472c-1.058133 0-2.116267 0.1024-3.1744 0.3072l-225.1776 42.496a17.066667 17.066667 0 0 0 6.3488 33.518933l225.1776-42.530133a17.043911 17.043911 0 0 0-3.1744-33.792zM378.333867 115.063467c-1.024 0-2.116267 0.068267-3.1744 0.273066l-225.1776 42.3936a17.043911 17.043911 0 0 0 6.314666 33.4848l225.1776-42.359466c9.250133-1.7408 15.36-10.683733 13.585067-19.899734a16.964267 16.964267 0 0 0-16.725333-13.892266z"  horiz-adv-x="1024" />

    


  </font>
</defs>
</svg>
